<?xml version="1.0" encoding="utf-8"?>
<!-- Generator: Adobe Illustrator 16.0.0, SVG Export Plug-In . SVG Version: 6.00 Build 0)  -->
<!DOCTYPE svg PUBLIC "-//W3C//DTD SVG 1.1//EN" "http://www.w3.org/Graphics/SVG/1.1/DTD/svg11.dtd">
<svg version="1.1"
	 id="svg2" xmlns:dc="http://purl.org/dc/elements/1.1/" xmlns:cc="http://creativecommons.org/ns#" xmlns:rdf="http://www.w3.org/1999/02/22-rdf-syntax-ns#" xmlns:svg="http://www.w3.org/2000/svg" xmlns:sodipodi="http://sodipodi.sourceforge.net/DTD/sodipodi-0.dtd" xmlns:inkscape="http://www.inkscape.org/namespaces/inkscape" inkscape:version="0.48.0 r9654" sodipodi:docname="A_of_hearts.svg" inkscape:export-filename="/home/byron/art/cards/final/PNGs/A_of_hearts.png" inkscape:export-xdpi="215.44792" inkscape:export-ydpi="215.44792"
	 xmlns="http://www.w3.org/2000/svg" xmlns:xlink="http://www.w3.org/1999/xlink" x="0px" y="0px" width="167.086px"
	 height="242.667px" viewBox="0 0 167.086 242.667" enable-background="new 0 0 167.086 242.667" xml:space="preserve">
<sodipodi:namedview  id="namedview39" pagecolor="#ffffff" bordercolor="#666666" borderopacity="1" objecttolerance="10" gridtolerance="10" guidetolerance="10" showgrid="false" inkscape:zoom="1.7208768" inkscape:cx="72.124594" inkscape:cy="147.27218" inkscape:pageopacity="0" inkscape:pageshadow="2" inkscape:window-width="1680" inkscape:window-height="977" inkscape:window-x="0" inkscape:window-maximized="1" inkscape:window-y="25" inkscape:current-layer="svg2">
	</sodipodi:namedview>
<g id="Layer_x0020_1">
	<g id="path5">
		<path fill="#FFF16C" d="M166.836,235.548c0,3.777-3.086,6.869-6.871,6.869H7.111c-3.775,0-6.861-3.092-6.861-6.869V7.12
			c0-3.777,3.086-6.87,6.861-6.87h152.854c3.785,0,6.871,3.093,6.871,6.87V235.548z"/>
		<g>
			<g>
				<g>
					<path fill="#996633" d="M142.956,245.194c0.993,0.754,1.981,1.598,3.026,2.535c2.713,2.438,5.192,3.756,7.321,4.257
						c0.134,0.028,0.265,0.057,0.395,0.084c0.13,0.025,0.234,0.051,0.489,0.051c0.435,0.01,0.861,0.009,1.278-0.004
						c0.833-0.024,1.626-0.093,2.362-0.197c1.474-0.21,2.715-0.566,3.655-1.023c2.429-1.047,2.123-3.47,1.167-4.341
						c-0.409-0.396-0.843-0.679-1.302-0.942c-0.465-0.281-0.933-0.485-1.385-0.607c-0.904-0.244-1.746-0.16-2.459,0.312
						c0.822,0.329,1.236,0.911,1.09,1.385c-0.139,0.473-0.885,0.845-2.175,0.724c-1.88-0.176-2.678-1.169-2.691-2.361
						c-0.105-1.182,0.403-2.522,1.045-3.417c0.429-0.595,0.885-1.182,1.439-1.599c0.562-0.418,1.205-0.666,2.185-0.586
						c0.975,0.033,2.355,0.362,4.357,0.238c0.963-0.091,2.178-0.205,3.309-0.689c0.269-0.131,0.568-0.261,0.857-0.411
						c0.265-0.169,0.537-0.344,0.816-0.523c0.147-0.094,0.298-0.188,0.449-0.285c0.127-0.105,0.256-0.214,0.386-0.323
						c0.277-0.229,0.563-0.466,0.855-0.708l9.454,4.418c0,0-0.263,0.732-0.721,2.014c-0.229,0.642-0.686,1.358-1.112,2.214
						c-0.209,0.432-0.548,0.832-0.841,1.287c-0.319,0.439-0.604,0.937-1.009,1.381c-0.386,0.458-0.795,0.929-1.226,1.409
						c-0.472,0.438-0.979,0.872-1.503,1.315c-0.512,0.461-1.125,0.805-1.704,1.228c-0.574,0.438-1.229,0.754-1.881,1.099
						c-0.327,0.17-0.657,0.342-0.989,0.515c-0.349,0.125-0.699,0.251-1.053,0.377s-0.709,0.254-1.065,0.382
						c-0.355,0.13-0.807,0.088-1.207,0.141c-1.653,0.12-3.332,0.243-5.011,0.365c-1.679,0.123-3.358,0.246-5.011,0.366l-0.614,0.045
						h-0.318h-0.632c-0.418,0-0.832,0-1.239,0c-1.628,0-3.146,0-4.448,0c-2.604,0-4.341,0-4.341,0L142.956,245.194z"/>
					<path fill="#0072BC" d="M142.956,236.327v8.867c0.993,0.754,1.981,1.598,3.026,2.535c2.713,2.438,5.192,3.756,7.321,4.257
						c0.134,0.028,0.265,0.057,0.395,0.084c0.13,0.025,0.234,0.051,0.489,0.051c0.435,0.01,0.861,0.009,1.278-0.004
						c0.833-0.024,1.626-0.093,2.362-0.197c1.474-0.21,2.715-0.566,3.655-1.023c2.429-1.047,2.123-3.47,1.167-4.341
						c-0.409-0.396-0.843-0.679-1.302-0.942c-0.465-0.281-0.933-0.485-1.385-0.607c-0.904-0.244-1.746-0.16-2.459,0.312
						c0.822,0.329,1.236,0.911,1.09,1.385c-0.139,0.473-0.885,0.845-2.175,0.724c-1.88-0.176-2.678-1.169-2.691-2.361
						c-0.105-1.182,0.403-2.522,1.045-3.417c0.429-0.595,0.885-1.182,1.439-1.599c0.562-0.418,1.205-0.666,2.185-0.586
						c0.975,0.033,2.355,0.362,4.357,0.238c0.963-0.091,2.178-0.205,3.309-0.689c0.269-0.131,0.568-0.261,0.857-0.411
						c0.265-0.169,0.537-0.344,0.816-0.523c0.147-0.094,0.298-0.188,0.449-0.285c0.127-0.105,0.256-0.214,0.386-0.323
						c0.277-0.229,0.563-0.466,0.855-0.708l-8.682-4.059c-0.052-0.03,0.118,0.999-0.714,2.136c-0.386,0.571-1.067,1.074-1.885,1.322
						c-0.828,0.246-1.763,0.146-2.674,0.167C149.214,236.327,142.956,236.327,142.956,236.327z"/>
				</g>
				<g>
					<path fill="#996633" d="M115.174,245.194c0.994,0.754,1.982,1.598,3.027,2.535c5.425,4.877,9.918,5.269,12.539,3.615
						c1.631-1.031,2.352-3.199,1.991-4.332c-0.598-1.889-2.31-2.527-3.644-1.6c1.231,0.723,0.715,2.469-1.119,2.114
						c-2.667-0.517-2.417-4.091-0.923-5.88c1.987-2.379,5.762-4.627,15.908,3.545v10.123h-27.778L115.174,245.194z"/>
					<path fill="#0072BC" d="M115.174,236.327v8.867c0.994,0.754,1.982,1.598,3.027,2.535c5.425,4.877,9.918,5.269,12.539,3.615
						c1.631-1.031,2.352-3.199,1.991-4.332c-0.598-1.889-2.31-2.527-3.644-1.6c1.231,0.723,0.715,2.469-1.119,2.114
						c-2.667-0.517-2.417-4.091-0.923-5.88c1.987-2.379,5.762-4.627,15.908,3.545v-8.865H115.174z"/>
				</g>
				<g>
					<path fill="#996633" d="M87.394,245.194c0.993,0.754,1.982,1.598,3.027,2.535c5.425,4.877,9.918,5.269,12.539,3.615
						c1.631-1.031,2.352-3.199,1.991-4.332c-0.598-1.889-2.31-2.527-3.644-1.6c1.231,0.723,0.715,2.469-1.119,2.114
						c-2.667-0.517-2.417-4.091-0.923-5.88c1.987-2.379,5.762-4.627,15.908,3.545v10.123H87.396L87.394,245.194z"/>
					<path fill="#0072BC" d="M87.394,236.327v8.867c0.993,0.754,1.982,1.598,3.027,2.535c5.425,4.877,9.918,5.269,12.539,3.615
						c1.631-1.031,2.352-3.199,1.991-4.332c-0.598-1.889-2.31-2.527-3.644-1.6c1.231,0.723,0.715,2.469-1.119,2.114
						c-2.667-0.517-2.417-4.091-0.923-5.88c1.987-2.379,5.762-4.627,15.908,3.545v-8.865H87.394z"/>
				</g>
				<g>
					<path fill="#996633" d="M59.614,245.194c0.993,0.754,1.981,1.598,3.027,2.535c5.425,4.877,9.917,5.269,12.539,3.615
						c1.631-1.031,2.352-3.199,1.991-4.332c-0.598-1.889-2.31-2.527-3.643-1.6c1.231,0.723,0.715,2.469-1.12,2.114
						c-2.667-0.517-2.417-4.091-0.923-5.88c1.988-2.379,5.762-4.627,15.909,3.545v10.123H59.616L59.614,245.194z"/>
					<path fill="#0072BC" d="M59.614,236.327v8.867c0.993,0.754,1.981,1.598,3.027,2.535c5.425,4.877,9.917,5.269,12.539,3.615
						c1.631-1.031,2.352-3.199,1.991-4.332c-0.598-1.889-2.31-2.527-3.643-1.6c1.231,0.723,0.715,2.469-1.12,2.114
						c-2.667-0.517-2.417-4.091-0.923-5.88c1.988-2.379,5.762-4.627,15.909,3.545v-8.865H59.614z"/>
				</g>
				<g>
					<path fill="#996633" d="M31.834,245.194c0.993,0.754,1.981,1.598,3.027,2.535c5.425,4.877,9.917,5.269,12.539,3.615
						c1.631-1.031,2.352-3.199,1.991-4.332c-0.598-1.889-2.31-2.527-3.643-1.6c1.231,0.723,0.715,2.469-1.12,2.114
						c-2.667-0.517-2.417-4.091-0.923-5.88c1.988-2.379,5.762-4.627,15.909,3.545v10.123H31.835L31.834,245.194z"/>
					<path fill="#0072BC" d="M31.834,236.327v8.867c0.993,0.754,1.981,1.598,3.027,2.535c5.425,4.877,9.917,5.269,12.539,3.615
						c1.631-1.031,2.352-3.199,1.991-4.332c-0.598-1.889-2.31-2.527-3.643-1.6c1.231,0.723,0.715,2.469-1.12,2.114
						c-2.667-0.517-2.417-4.091-0.923-5.88c1.988-2.379,5.762-4.627,15.909,3.545v-8.865H31.834z"/>
				</g>
				<g>
					<path fill="#996633" d="M2.51,243.964c0.132,0.318,0.293,0.588,0.464,0.858c0.171,0.285,0.345,0.574,0.521,0.868
						c0.367,0.572,0.797,1.062,1.256,1.677c1.337,1.232,3.08,2.227,4.916,3.02c0.92,0.396,1.866,0.736,2.809,1.024
						c0.234,0.069,0.465,0.137,0.692,0.204c0.142,0.049,0.281,0.096,0.419,0.144c0.277,0.088,0.548,0.164,0.814,0.227
						c2.129,0.5,3.908,0.186,5.218-0.642c1.631-1.031,2.352-3.199,1.991-4.332c-0.598-1.889-2.31-2.527-3.644-1.6
						c1.231,0.723,0.715,2.469-1.119,2.114c-2.667-0.517-2.417-4.091-0.923-5.88c1.988-2.379,5.762-4.627,15.909,3.545v10.123
						c0,0-6.945,0-13.889,0c-0.868,0-1.736,0-2.591,0c-0.427,0-0.851,0-1.27,0h-0.624h-0.309l-0.589-0.043
						c-3.147-0.23-6.085-0.445-8.603-0.63c-0.629-0.047-1.233-0.091-1.807-0.133c-0.277-0.038-0.587-0.003-0.817-0.1
						c-0.237-0.085-0.467-0.168-0.69-0.248c-0.894-0.313-1.676-0.578-2.271-0.943c-0.609-0.322-1.087-0.576-1.413-0.749
						c-0.307-0.211-0.47-0.323-0.47-0.323L2.51,243.964z"/>
					<path fill="#0072BC" d="M8.405,235.958l-5.895,8.006c0.132,0.318,0.293,0.588,0.464,0.858c0.171,0.285,0.345,0.574,0.521,0.868
						c0.367,0.572,0.797,1.062,1.256,1.677c1.337,1.232,3.08,2.227,4.916,3.02c0.92,0.396,1.866,0.736,2.809,1.024
						c0.234,0.069,0.465,0.137,0.692,0.204c0.142,0.049,0.281,0.096,0.419,0.144c0.277,0.088,0.548,0.164,0.814,0.227
						c2.129,0.5,3.908,0.186,5.218-0.642c1.631-1.031,2.352-3.199,1.991-4.332c-0.598-1.889-2.31-2.527-3.644-1.6
						c1.231,0.723,0.715,2.469-1.119,2.114c-2.667-0.517-2.417-4.091-0.923-5.88c1.988-2.379,5.762-4.627,15.909,3.545v-8.865
						c0,0-6.945,0-13.89,0c-2.656,0-5.313,0-7.305,0c-0.684,0.004-1.267-0.015-1.646-0.149c-0.191-0.061-0.341-0.107-0.443-0.14
						C8.455,235.986,8.405,235.958,8.405,235.958z"/>
				</g>
				<g>
					<path fill="#996633" d="M-2.526,215.472c-0.754,0.993-1.598,1.981-2.535,3.026c-2.438,2.713-3.755,5.192-4.256,7.321
						c-0.25,1.064-0.297,2.041-0.177,2.916c0.03,0.219,0.07,0.431,0.12,0.637c0.077,0.307,0.151,0.606,0.225,0.903
						c0.177,0.643,0.386,1.226,0.622,1.743c1.18,2.615,3.292,2.96,4.36,2.178c1.779-1.321,2.382-3.268,1.423-4.812
						c-0.351,0.685-0.947,1.004-1.439,0.737c-0.242-0.105-0.47-0.438-0.596-0.734c-0.125-0.287-0.167-0.663-0.079-1.122
						c0.517-2.667,4.091-2.417,5.88-0.923c0.595,0.497,1.181,1.105,1.599,1.897c0.417,0.763,0.666,1.392,0.585,2.375
						c-0.041,0.482-0.164,1.035-0.389,1.72c-0.112,0.343-0.251,0.72-0.417,1.141c-0.149,0.439-0.309,0.907-0.479,1.406
						c-0.164,0.519-0.245,1.073-0.397,1.712c-0.061,0.314-0.067,0.623-0.105,0.963c-0.019,0.329-0.093,0.717-0.047,1.037
						c0.094,0.634,0.113,1.425,0.343,2.112c0.1,0.356,0.194,0.753,0.324,1.132c0.154,0.364,0.312,0.738,0.474,1.124l-6.022,8.182
						c0,0-0.164-0.113-0.47-0.324c-0.298-0.223-0.774-0.494-1.31-0.942c-0.52-0.464-1.21-0.971-1.86-1.691
						c-0.646-0.728-1.375-1.554-2.014-2.56c-0.722-0.955-1.277-2.115-1.868-3.322c-0.225-0.629-0.457-1.275-0.693-1.937
						c-0.16-0.701-0.141-1.516-0.222-2.29c-0.223-3.101-0.461-6.408-0.699-9.715c0-6.945,0-13.89,0-13.89L-2.526,215.472z"/>
					<path fill="#0072BC" d="M6.341,215.472h-8.867c-0.754,0.993-1.598,1.981-2.535,3.026c-2.438,2.713-3.755,5.192-4.256,7.321
						c-0.25,1.064-0.297,2.041-0.177,2.916c0.03,0.219,0.07,0.431,0.12,0.637c0.077,0.307,0.151,0.606,0.225,0.903
						c0.177,0.643,0.386,1.226,0.622,1.743c1.18,2.615,3.292,2.96,4.36,2.178c1.779-1.321,2.382-3.268,1.423-4.812
						c-0.351,0.685-0.947,1.004-1.439,0.737c-0.242-0.105-0.47-0.438-0.596-0.734c-0.125-0.287-0.167-0.663-0.079-1.122
						c0.517-2.667,4.091-2.417,5.88-0.923c0.595,0.497,1.181,1.105,1.599,1.897c0.417,0.763,0.666,1.392,0.585,2.375
						c-0.041,0.482-0.164,1.035-0.389,1.72c-0.112,0.343-0.251,0.72-0.417,1.141c-0.149,0.439-0.309,0.907-0.479,1.406
						c-0.164,0.519-0.245,1.073-0.397,1.712c-0.061,0.314-0.067,0.623-0.105,0.963c-0.019,0.329-0.093,0.717-0.047,1.037
						c0.094,0.634,0.113,1.425,0.343,2.112c0.1,0.356,0.194,0.753,0.324,1.132c0.154,0.364,0.312,0.738,0.474,1.124l5.894-8.004
						c0,0-0.212-0.094-0.542-0.317c-0.311-0.246-0.77-0.62-1.078-1.241c-0.188-0.29-0.276-0.659-0.377-1.036
						c-0.048-0.392-0.083-0.805-0.067-1.235c0-0.883,0-1.825,0-2.767C6.341,222.417,6.341,215.472,6.341,215.472z"/>
				</g>
				<g>
					<path fill="#996633" d="M-2.526,187.692c-0.754,0.993-1.598,1.981-2.535,3.026c-4.877,5.426-5.269,9.918-3.615,12.539
						c1.031,1.631,3.199,2.352,4.332,1.991c1.889-0.598,2.527-2.31,1.6-3.644c-0.723,1.231-2.469,0.716-2.114-1.119
						c0.517-2.667,4.091-2.417,5.88-0.923c2.379,1.987,4.627,5.762-3.545,15.908h-10.123v-27.778L-2.526,187.692z"/>
					<path fill="#0072BC" d="M6.341,187.692h-8.867c-0.754,0.993-1.598,1.981-2.535,3.026c-4.877,5.426-5.269,9.918-3.615,12.539
						c1.031,1.631,3.199,2.352,4.332,1.991c1.889-0.598,2.527-2.31,1.6-3.644c-0.723,1.231-2.469,0.716-2.114-1.119
						c0.517-2.667,4.091-2.417,5.88-0.923c2.379,1.987,4.627,5.762-3.545,15.908h8.865V187.692z"/>
				</g>
				<g>
					<path fill="#996633" d="M-2.526,159.912c-0.754,0.993-1.598,1.981-2.535,3.026c-4.877,5.425-5.269,9.918-3.615,12.539
						c1.031,1.631,3.199,2.352,4.332,1.991c1.889-0.598,2.527-2.31,1.6-3.644c-0.723,1.231-2.469,0.715-2.114-1.119
						c0.517-2.667,4.091-2.417,5.88-0.923c2.379,1.987,4.627,5.762-3.545,15.908h-10.123v-27.778L-2.526,159.912z"/>
					<path fill="#0072BC" d="M6.341,159.912h-8.867c-0.754,0.993-1.598,1.981-2.535,3.026c-4.877,5.425-5.269,9.918-3.615,12.539
						c1.031,1.631,3.199,2.352,4.332,1.991c1.889-0.598,2.527-2.31,1.6-3.644c-0.723,1.231-2.469,0.715-2.114-1.119
						c0.517-2.667,4.091-2.417,5.88-0.923c2.379,1.987,4.627,5.762-3.545,15.908h8.865V159.912z"/>
				</g>
				<g>
					<path fill="#996633" d="M-2.526,132.13c-0.754,0.994-1.598,1.982-2.535,3.027c-4.877,5.425-5.269,9.918-3.615,12.539
						c1.031,1.631,3.199,2.352,4.332,1.991c1.889-0.598,2.527-2.31,1.6-3.644c-0.723,1.231-2.469,0.715-2.114-1.119
						c0.517-2.667,4.091-2.417,5.88-0.923c2.379,1.987,4.627,5.762-3.545,15.908h-10.123v-27.778L-2.526,132.13z"/>
					<path fill="#0072BC" d="M6.341,132.13h-8.867c-0.754,0.994-1.598,1.982-2.535,3.027c-4.877,5.425-5.269,9.918-3.615,12.539
						c1.031,1.631,3.199,2.352,4.332,1.991c1.889-0.598,2.527-2.31,1.6-3.644c-0.723,1.231-2.469,0.715-2.114-1.119
						c0.517-2.667,4.091-2.417,5.88-0.923c2.379,1.987,4.627,5.762-3.545,15.908h8.865V132.13z"/>
				</g>
				<g>
					<path fill="#996633" d="M-2.526,104.351c-0.754,0.993-1.598,1.981-2.535,3.027c-4.877,5.425-5.269,9.917-3.615,12.539
						c1.031,1.631,3.199,2.352,4.332,1.991c1.889-0.598,2.527-2.31,1.6-3.643c-0.723,1.231-2.469,0.715-2.114-1.12
						c0.517-2.667,4.091-2.417,5.88-0.923c2.379,1.988,4.627,5.762-3.545,15.909h-10.123v-27.778L-2.526,104.351z"/>
					<path fill="#0072BC" d="M6.341,104.351h-8.867c-0.754,0.993-1.598,1.981-2.535,3.027c-4.877,5.425-5.269,9.917-3.615,12.539
						c1.031,1.631,3.199,2.352,4.332,1.991c1.889-0.598,2.527-2.31,1.6-3.643c-0.723,1.231-2.469,0.715-2.114-1.12
						c0.517-2.667,4.091-2.417,5.88-0.923c2.379,1.988,4.627,5.762-3.545,15.909h8.865V104.351z"/>
				</g>
				<g>
					<path fill="#996633" d="M-2.526,76.57c-0.754,0.993-1.598,1.981-2.535,3.027c-4.877,5.425-5.269,9.917-3.615,12.539
						c1.031,1.631,3.199,2.352,4.332,1.991c1.889-0.598,2.527-2.31,1.6-3.643c-0.723,1.231-2.469,0.715-2.114-1.12
						c0.517-2.667,4.091-2.417,5.88-0.923c2.379,1.988,4.627,5.762-3.545,15.909h-10.123V76.572L-2.526,76.57z"/>
					<path fill="#0072BC" d="M6.341,76.57h-8.867c-0.754,0.993-1.598,1.981-2.535,3.027c-4.877,5.425-5.269,9.917-3.615,12.539
						c1.031,1.631,3.199,2.352,4.332,1.991c1.889-0.598,2.527-2.31,1.6-3.643c-0.723,1.231-2.469,0.715-2.114-1.12
						c0.517-2.667,4.091-2.417,5.88-0.923c2.379,1.988,4.627,5.762-3.545,15.909h8.865V76.57z"/>
				</g>
				<g>
					<path fill="#996633" d="M-2.526,48.79c-0.754,0.993-1.598,1.981-2.535,3.027c-4.877,5.425-5.269,9.917-3.615,12.539
						c1.031,1.631,3.199,2.352,4.332,1.991c1.889-0.598,2.527-2.31,1.6-3.643c-0.723,1.231-2.469,0.715-2.114-1.12
						c0.517-2.667,4.091-2.417,5.88-0.923c2.379,1.988,4.627,5.762-3.545,15.909h-10.123V48.792L-2.526,48.79z"/>
					<path fill="#0072BC" d="M6.341,48.79h-8.867c-0.754,0.993-1.598,1.981-2.535,3.027c-4.877,5.425-5.269,9.917-3.615,12.539
						c1.031,1.631,3.199,2.352,4.332,1.991c1.889-0.598,2.527-2.31,1.6-3.643c-0.723,1.231-2.469,0.715-2.114-1.12
						c0.517-2.667,4.091-2.417,5.88-0.923c2.379,1.988,4.627,5.762-3.545,15.909h8.865V48.79z"/>
				</g>
				<g>
					<path fill="#996633" d="M-2.526,21.01c-0.754,0.993-1.598,1.981-2.535,3.027c-4.877,5.425-5.269,9.917-3.615,12.539
						c1.031,1.631,3.199,2.352,4.332,1.991c1.889-0.598,2.527-2.31,1.6-3.644c-0.723,1.231-2.469,0.715-2.114-1.119
						c0.517-2.667,4.091-2.417,5.88-0.923c2.379,1.988,4.627,5.762-3.545,15.909h-10.123V21.011L-2.526,21.01z"/>
					<path fill="#0072BC" d="M6.341,21.01h-8.867c-0.754,0.993-1.598,1.981-2.535,3.027c-4.877,5.425-5.269,9.917-3.615,12.539
						c1.031,1.631,3.199,2.352,4.332,1.991c1.889-0.598,2.527-2.31,1.6-3.644c-0.723,1.231-2.469,0.715-2.114-1.119
						c0.517-2.667,4.091-2.417,5.88-0.923c2.379,1.988,4.627,5.762-3.545,15.909h8.865V21.01z"/>
				</g>
				<g>
					<path fill="#996633" d="M9.656-2.438C8.303-3.137,6.78-3.9,4.931-4.715c-2.29-0.837-4.595-0.917-6.546-0.338
						c-0.514,0.1-0.957,0.309-1.412,0.497c-0.439,0.206-0.912,0.38-1.285,0.651c-0.757,0.529-1.509,1.071-2.046,1.734
						C-6.645-1.852-6.919-1.53-7.179-1.207c-0.222,0.341-0.414,0.691-0.602,1.035C-7.958,0.176-8.158,0.51-8.276,0.862
						C-8.381,1.218-8.472,1.57-8.55,1.916C-8.626,2.262-8.696,2.6-8.74,2.936c0.025,0.371,0.061,0.732,0.105,1.083
						c0.09,0.701,0.219,1.359,0.384,1.964c0.816,3.054,2.901,4.32,4.025,4.019c1.879-0.531,2.505-2.164,1.678-4.16
						c-0.357,0.589-0.95,0.604-1.394,0.145c-0.222-0.229-0.406-0.58-0.507-1.026c-0.044-0.422,0.042-0.921,0.256-1.461
						c0.782-1.546,2.032-1.603,3.034-0.963c0.501,0.311,0.955,0.779,1.342,1.303c0.188,0.26,0.375,0.541,0.568,0.838
						c0.217,0.315,0.413,0.631,0.578,0.938c0.398,0.809,0.943,1.672,1.3,2.513c0.397,0.85,0.661,1.667,0.575,2.589
						c-0.041,0.465-0.164,0.961-0.389,1.543c-0.112,0.297-0.251,0.592-0.417,0.963c-0.167,0.413-0.361,0.846-0.586,1.299
						c-0.901,1.812-2.293,3.95-4.336,6.487h-10.123c0,0,0-1.736,0-4.34c0-0.651,0-1.356,0-2.103c0-0.373,0-0.756,0-1.148
						l0.003-0.317l0.042-0.577c0.028-0.386,0.057-0.776,0.085-1.17c0.23-3.148,0.476-6.505,0.721-9.863
						c0.831-2.991,2.583-5.746,4.594-7.954c2.081-2.162,4.505-3.635,6.631-4.596c2.071-1.021,4.357-0.822,5.785-1.008
						c1.469-0.107,2.308-0.169,2.308-0.169L9.656-2.438z"/>
					<path fill="#0072BC" d="M11.613,6.341L9.656-2.438C8.303-3.137,6.78-3.9,4.931-4.715c-2.29-0.837-4.595-0.917-6.546-0.338
						c-0.514,0.1-0.957,0.309-1.412,0.497c-0.439,0.206-0.912,0.38-1.285,0.651c-0.757,0.529-1.509,1.071-2.046,1.734
						C-6.645-1.852-6.919-1.53-7.179-1.207c-0.222,0.341-0.414,0.691-0.602,1.035C-7.958,0.176-8.158,0.51-8.276,0.862
						C-8.381,1.218-8.472,1.57-8.55,1.916C-8.626,2.262-8.696,2.6-8.74,2.936c0.025,0.371,0.061,0.732,0.105,1.083
						c0.09,0.701,0.219,1.359,0.384,1.964c0.816,3.054,2.901,4.32,4.025,4.019c1.879-0.531,2.505-2.164,1.678-4.16
						c-0.357,0.589-0.95,0.604-1.394,0.145c-0.222-0.229-0.406-0.58-0.507-1.026c-0.044-0.422,0.042-0.921,0.256-1.461
						c0.782-1.546,2.032-1.603,3.034-0.963c0.501,0.311,0.955,0.779,1.342,1.303c0.188,0.26,0.375,0.541,0.568,0.838
						c0.217,0.315,0.413,0.631,0.578,0.938c0.398,0.809,0.943,1.672,1.3,2.513c0.397,0.85,0.661,1.667,0.575,2.589
						c-0.041,0.465-0.164,0.961-0.389,1.543c-0.112,0.297-0.251,0.592-0.417,0.963c-0.167,0.413-0.361,0.846-0.586,1.299
						c-0.901,1.812-2.293,3.95-4.336,6.487h8.865c0,0,0-5.522,0-11.043c0-0.921,0.38-1.821,0.969-2.445
						c0.585-0.636,1.346-0.981,2.016-1.115c0.683-0.097,1.257-0.056,1.658-0.065C11.384,6.341,11.613,6.341,11.613,6.341z"/>
				</g>
				<g>
					<path fill="#996633" d="M38.02-2.526c-0.993-0.754-1.981-1.598-3.027-2.535c-5.425-4.877-9.917-5.269-12.539-3.615
						c-1.631,1.031-2.352,3.199-1.991,4.332c0.598,1.889,2.31,2.527,3.644,1.6c-1.231-0.723-0.715-2.469,1.119-2.114
						c2.667,0.517,2.417,4.091,0.923,5.88c-0.994,1.189-2.434,2.346-4.895,2.184c-1.23-0.081-2.715-0.492-4.527-1.393
						c-0.906-0.451-1.893-1.024-2.971-1.74C12.71-0.649,11.39-1.485,9.657-2.436l-2.13-9.8c0,0,0.839-0.062,2.308-0.169
						c0.734-0.054,1.626-0.119,2.649-0.194c0.127-0.009,0.257-0.019,0.39-0.028c0.122-0.008,0.298-0.024,0.339-0.02
						c0.14,0,0.285,0,0.433,0c0.297,0,0.609,0,0.935,0c2.604,0,6.076,0,9.548,0c6.945,0,13.89,0,13.89,0L38.02-2.526z"/>
					<path fill="#0072BC" d="M38.02,6.341v-8.867c-0.993-0.754-1.981-1.598-3.027-2.535c-5.425-4.877-9.917-5.269-12.539-3.615
						c-1.631,1.031-2.352,3.199-1.991,4.332c0.598,1.889,2.31,2.527,3.644,1.6c-1.231-0.723-0.715-2.469,1.119-2.114
						c2.667,0.517,2.417,4.091,0.923,5.88c-0.994,1.189-2.434,2.346-4.895,2.184c-1.23-0.081-2.715-0.492-4.527-1.393
						c-0.906-0.451-1.893-1.024-2.971-1.74C12.71-0.649,11.39-1.485,9.657-2.436l1.956,8.777H38.02z"/>
				</g>
				<g>
					<path fill="#996633" d="M65.801-2.526c-0.993-0.754-1.982-1.598-3.027-2.535c-5.425-4.877-9.917-5.269-12.539-3.615
						c-1.631,1.031-2.352,3.199-1.991,4.332c0.598,1.889,2.31,2.527,3.644,1.6c-1.231-0.723-0.715-2.469,1.119-2.114
						c2.667,0.517,2.417,4.091,0.923,5.88c-1.988,2.379-5.762,4.627-15.908-3.545v-10.123h27.778L65.801-2.526z"/>
					<path fill="#0072BC" d="M65.801,6.341v-8.867c-0.993-0.754-1.982-1.598-3.027-2.535c-5.425-4.877-9.917-5.269-12.539-3.615
						c-1.631,1.031-2.352,3.199-1.991,4.332c0.598,1.889,2.31,2.527,3.644,1.6c-1.231-0.723-0.715-2.469,1.119-2.114
						c2.667,0.517,2.417,4.091,0.923,5.88c-1.988,2.379-5.762,4.627-15.908-3.545v8.865H65.801z"/>
				</g>
				<g>
					<path fill="#996633" d="M93.581-2.526c-0.993-0.754-1.981-1.598-3.027-2.535c-5.425-4.877-9.917-5.269-12.539-3.615
						c-1.631,1.031-2.352,3.199-1.991,4.332c0.598,1.889,2.31,2.527,3.644,1.6c-1.231-0.723-0.715-2.469,1.12-2.114
						c2.667,0.517,2.417,4.091,0.923,5.88c-1.988,2.379-5.762,4.627-15.908-3.545v-10.123H93.58L93.581-2.526z"/>
					<path fill="#0072BC" d="M93.581,6.341v-8.867c-0.993-0.754-1.981-1.598-3.027-2.535c-5.425-4.877-9.917-5.269-12.539-3.615
						c-1.631,1.031-2.352,3.199-1.991,4.332c0.598,1.889,2.31,2.527,3.644,1.6c-1.231-0.723-0.715-2.469,1.12-2.114
						c2.667,0.517,2.417,4.091,0.923,5.88c-1.988,2.379-5.762,4.627-15.908-3.545v8.865H93.581z"/>
				</g>
				<g>
					<path fill="#996633" d="M121.361-2.526c-0.993-0.754-1.981-1.598-3.026-2.535c-5.426-4.877-9.918-5.269-12.539-3.615
						c-1.631,1.031-2.352,3.199-1.991,4.332c0.598,1.889,2.31,2.527,3.643,1.6c-1.23-0.723-0.715-2.469,1.12-2.114
						c2.667,0.517,2.416,4.091,0.923,5.88c-1.987,2.379-5.762,4.627-15.908-3.545v-10.123h27.778L121.361-2.526z"/>
					<path fill="#0072BC" d="M121.361,6.341v-8.867c-0.993-0.754-1.981-1.598-3.026-2.535c-5.426-4.877-9.918-5.269-12.539-3.615
						c-1.631,1.031-2.352,3.199-1.991,4.332c0.598,1.889,2.31,2.527,3.643,1.6c-1.23-0.723-0.715-2.469,1.12-2.114
						c2.667,0.517,2.416,4.091,0.923,5.88c-1.987,2.379-5.762,4.627-15.908-3.545v8.865H121.361z"/>
				</g>
				<g>
					<path fill="#996633" d="M149.141-2.526c-0.993-0.754-1.981-1.598-3.026-2.535c-5.426-4.877-9.918-5.269-12.539-3.615
						c-1.631,1.031-2.352,3.199-1.991,4.332c0.598,1.889,2.31,2.527,3.644,1.6c-1.231-0.723-0.716-2.469,1.119-2.114
						c2.667,0.517,2.417,4.091,0.923,5.88c-1.987,2.379-5.762,4.627-15.908-3.545v-10.123h27.778L149.141-2.526z"/>
					<path fill="#0072BC" d="M149.141,6.341v-8.867c-0.993-0.754-1.981-1.598-3.026-2.535c-5.426-4.877-9.918-5.269-12.539-3.615
						c-1.631,1.031-2.352,3.199-1.991,4.332c0.598,1.889,2.31,2.527,3.644,1.6c-1.231-0.723-0.716-2.469,1.119-2.114
						c2.667,0.517,2.417,4.091,0.923,5.88c-1.987,2.379-5.762,4.627-15.908-3.545v8.865H149.141z"/>
				</g>
				<g>
					<path fill="#996633" d="M169.613,13.306c0.734-1.121,1.519-2.503,2.368-4.13c0.551-1.066,1.021-2.186,1.421-3.325
						c0.2-0.57,0.383-1.144,0.548-1.719c0.102-0.296,0.14-0.564,0.153-0.823c0.02-0.267,0.039-0.528,0.058-0.786
						c0.171-2.108-0.482-3.963-1.283-5.518c-0.876-1.524-2.053-2.67-3.31-3.369c-0.641-0.324-1.22-0.688-1.863-0.809
						c-0.628-0.153-1.229-0.25-1.795-0.291c-1.479,0.109-2.629,0.519-3.503,1.337c-0.84,0.737-1.254,1.513-1.237,2.054
						c0.013,0.455,0.137,0.824,0.326,1.138c0.177,0.353,0.43,0.627,0.744,0.822c0.155,0.104,0.333,0.161,0.512,0.248
						c0.179,0.094,0.37,0.168,0.575,0.224c0.404,0.123,0.888,0.108,1.354,0.153c-0.2-0.35-0.293-0.621-0.256-0.884
						c0.037-0.261,0.196-0.491,0.453-0.642c0.522-0.344,1.399-0.19,2.31,0.612c1.254,1.306,0.916,2.666,0.104,3.511
						c-0.407,0.433-0.944,0.773-1.509,1.022c-0.284,0.126-0.568,0.223-0.86,0.307c-0.313,0.105-0.649,0.213-0.973,0.296
						c-0.425,0.106-0.855,0.206-1.278,0.277c-0.419,0.066-0.889,0.192-1.313,0.223c-0.864,0.085-1.729,0.12-2.629-0.018
						c-0.918-0.11-1.844-0.5-3.307-1.408c-0.386-0.241-0.796-0.497-1.233-0.771c-0.462-0.289-1.002-0.611-1.534-0.969
						c-1.078-0.716-2.246-1.575-3.515-2.596v-10.123c0,0,1.736,0,4.34,0c0.18,0.002,0.291-0.006,0.537,0.006
						c0.327,0.024,0.661,0.048,1,0.073c0.679,0.05,1.381,0.101,2.102,0.154c1.443,0.105,2.965,0.217,4.539,0.332
						c0.786,0.058,1.587,0.116,2.396,0.175c0.405,0.03,0.813,0.06,1.222,0.089l0.308,0.022l0.27,0.094l0.54,0.193
						c1.458,0.454,2.867,1.184,4.2,2.033c1.324,0.868,2.598,1.853,3.675,2.995c1.075,1.152,1.956,2.424,2.744,3.679
						c0.344,0.653,0.683,1.295,1.014,1.923c0.238,0.66,0.471,1.306,0.698,1.935c0.052,0.159,0.121,0.309,0.158,0.473l0.039,0.53
						c0.025,0.351,0.051,0.695,0.075,1.035c0.05,0.679,0.098,1.335,0.144,1.964c0.185,2.518,0.338,4.617,0.445,6.086
						c0.054,0.734,0.096,1.312,0.125,1.705c0.016,0.207,0.025,0.35,0.021,0.376c0,0.053,0,0.08,0,0.08L169.613,13.306z"/>
					<path fill="#0072BC" d="M160.746,13.306h8.867c0.734-1.121,1.519-2.503,2.368-4.13c0.551-1.066,1.021-2.186,1.421-3.325
						c0.2-0.57,0.383-1.144,0.548-1.719c0.102-0.296,0.14-0.564,0.153-0.823c0.02-0.267,0.039-0.528,0.058-0.786
						c0.171-2.108-0.482-3.963-1.283-5.518c-0.876-1.524-2.053-2.67-3.31-3.369c-0.641-0.324-1.22-0.688-1.863-0.809
						c-0.628-0.153-1.229-0.25-1.795-0.291c-1.479,0.109-2.629,0.519-3.503,1.337c-0.84,0.737-1.254,1.513-1.237,2.054
						c0.013,0.455,0.137,0.824,0.326,1.138c0.177,0.353,0.43,0.627,0.744,0.822c0.155,0.104,0.333,0.161,0.512,0.248
						c0.179,0.094,0.37,0.168,0.575,0.224c0.404,0.123,0.888,0.108,1.354,0.153c-0.2-0.35-0.293-0.621-0.256-0.884
						c0.037-0.261,0.196-0.491,0.453-0.642c0.522-0.344,1.399-0.19,2.31,0.612c1.254,1.306,0.916,2.666,0.104,3.511
						c-0.407,0.433-0.944,0.773-1.509,1.022c-0.284,0.126-0.568,0.223-0.86,0.307c-0.313,0.105-0.649,0.213-0.973,0.296
						c-0.425,0.106-0.855,0.206-1.278,0.277c-0.419,0.066-0.889,0.192-1.313,0.223c-0.864,0.085-1.729,0.12-2.629-0.018
						c-0.918-0.11-1.844-0.5-3.307-1.408c-0.386-0.241-0.796-0.497-1.233-0.771c-0.462-0.289-1.002-0.611-1.534-0.969
						c-1.078-0.716-2.246-1.575-3.515-2.596v8.865c0,0,1.736,0,4.341,0c0.75,0,1.626,0,2.563,0c0.85,0.003,1.803-0.056,2.635,0.369
						c0.829,0.394,1.479,1.119,1.8,1.916c0.35,0.803,0.24,1.637,0.265,2.315C160.746,12.359,160.746,13.306,160.746,13.306z"/>
				</g>
				<g>
					<path fill="#996633" d="M169.613,41.086c0.754-0.994,1.598-1.982,2.535-3.027c4.877-5.425,5.269-9.917,3.615-12.539
						c-1.031-1.631-3.199-2.352-4.332-1.991c-1.889,0.598-2.527,2.31-1.6,3.644c0.723-1.231,2.469-0.715,2.114,1.119
						c-0.517,2.667-4.091,2.417-5.88,0.923c-2.379-1.988-4.627-5.762,3.545-15.909h10.123v27.778L169.613,41.086z"/>
					<path fill="#0072BC" d="M160.746,41.086h8.867c0.754-0.994,1.598-1.982,2.535-3.027c4.877-5.425,5.269-9.917,3.615-12.539
						c-1.031-1.631-3.199-2.352-4.332-1.991c-1.889,0.598-2.527,2.31-1.6,3.644c0.723-1.231,2.469-0.715,2.114,1.119
						c-0.517,2.667-4.091,2.417-5.88,0.923c-2.379-1.988-4.627-5.762,3.545-15.909h-8.865V41.086z"/>
				</g>
				<g>
					<path fill="#996633" d="M169.613,68.867c0.754-0.993,1.598-1.982,2.535-3.027c4.877-5.425,5.269-9.917,3.615-12.539
						c-1.031-1.631-3.199-2.352-4.332-1.991c-1.889,0.598-2.527,2.31-1.6,3.644c0.723-1.231,2.469-0.715,2.114,1.119
						c-0.517,2.667-4.091,2.417-5.88,0.923c-2.379-1.988-4.627-5.762,3.545-15.909h10.123v27.779L169.613,68.867z"/>
					<path fill="#0072BC" d="M160.746,68.867h8.867c0.754-0.993,1.598-1.982,2.535-3.027c4.877-5.425,5.269-9.917,3.615-12.539
						c-1.031-1.631-3.199-2.352-4.332-1.991c-1.889,0.598-2.527,2.31-1.6,3.644c0.723-1.231,2.469-0.715,2.114,1.119
						c-0.517,2.667-4.091,2.417-5.88,0.923c-2.379-1.988-4.627-5.762,3.545-15.909h-8.865V68.867z"/>
				</g>
				<g>
					<path fill="#996633" d="M169.613,96.647c0.754-0.993,1.598-1.982,2.535-3.027c4.877-5.425,5.269-9.917,3.615-12.539
						c-1.031-1.631-3.199-2.352-4.332-1.991c-1.889,0.598-2.527,2.31-1.6,3.644c0.723-1.231,2.469-0.715,2.114,1.12
						c-0.517,2.667-4.091,2.417-5.88,0.923c-2.379-1.988-4.627-5.762,3.545-15.908h10.123v27.778L169.613,96.647z"/>
					<path fill="#0072BC" d="M160.746,96.647h8.867c0.754-0.993,1.598-1.982,2.535-3.027c4.877-5.425,5.269-9.917,3.615-12.539
						c-1.031-1.631-3.199-2.352-4.332-1.991c-1.889,0.598-2.527,2.31-1.6,3.644c0.723-1.231,2.469-0.715,2.114,1.12
						c-0.517,2.667-4.091,2.417-5.88,0.923c-2.379-1.988-4.627-5.762,3.545-15.908h-8.865V96.647z"/>
				</g>
				<g>
					<path fill="#996633" d="M169.613,124.427c0.754-0.993,1.598-1.981,2.535-3.027c4.877-5.425,5.269-9.917,3.615-12.539
						c-1.031-1.631-3.199-2.352-4.332-1.991c-1.889,0.598-2.527,2.31-1.6,3.644c0.723-1.231,2.469-0.715,2.114,1.12
						c-0.517,2.667-4.091,2.417-5.88,0.923c-2.379-1.988-4.627-5.762,3.545-15.908h10.123v27.778L169.613,124.427z"/>
					<path fill="#0072BC" d="M160.746,124.427h8.867c0.754-0.993,1.598-1.981,2.535-3.027c4.877-5.425,5.269-9.917,3.615-12.539
						c-1.031-1.631-3.199-2.352-4.332-1.991c-1.889,0.598-2.527,2.31-1.6,3.644c0.723-1.231,2.469-0.715,2.114,1.12
						c-0.517,2.667-4.091,2.417-5.88,0.923c-2.379-1.988-4.627-5.762,3.545-15.908h-8.865V124.427z"/>
				</g>
				<g>
					<path fill="#996633" d="M169.613,152.208c0.754-0.993,1.598-1.981,2.535-3.027c4.877-5.425,5.269-9.917,3.615-12.539
						c-1.031-1.631-3.199-2.352-4.332-1.991c-1.889,0.599-2.527,2.31-1.6,3.644c0.723-1.231,2.469-0.715,2.114,1.119
						c-0.517,2.667-4.091,2.417-5.88,0.924c-2.379-1.988-4.627-5.763,3.545-15.909h10.123v27.778L169.613,152.208z"/>
					<path fill="#0072BC" d="M160.746,152.208h8.867c0.754-0.993,1.598-1.981,2.535-3.027c4.877-5.425,5.269-9.917,3.615-12.539
						c-1.031-1.631-3.199-2.352-4.332-1.991c-1.889,0.599-2.527,2.31-1.6,3.644c0.723-1.231,2.469-0.715,2.114,1.119
						c-0.517,2.667-4.091,2.417-5.88,0.924c-2.379-1.988-4.627-5.763,3.545-15.909h-8.865V152.208z"/>
				</g>
				<g>
					<path fill="#996633" d="M169.613,179.988c0.754-0.993,1.598-1.981,2.535-3.027c4.877-5.425,5.269-9.917,3.615-12.539
						c-1.031-1.631-3.199-2.352-4.332-1.991c-1.889,0.599-2.527,2.31-1.6,3.644c0.723-1.231,2.469-0.715,2.114,1.119
						c-0.517,2.667-4.091,2.417-5.88,0.924c-2.379-1.988-4.627-5.762,3.545-15.909h10.123v27.778L169.613,179.988z"/>
					<path fill="#0072BC" d="M160.746,179.988h8.867c0.754-0.993,1.598-1.981,2.535-3.027c4.877-5.425,5.269-9.917,3.615-12.539
						c-1.031-1.631-3.199-2.352-4.332-1.991c-1.889,0.599-2.527,2.31-1.6,3.644c0.723-1.231,2.469-0.715,2.114,1.119
						c-0.517,2.667-4.091,2.417-5.88,0.924c-2.379-1.988-4.627-5.762,3.545-15.909h-8.865V179.988z"/>
				</g>
				<g>
					<path fill="#996633" d="M169.613,207.768c0.754-0.993,1.598-1.981,2.535-3.027c4.877-5.425,5.269-9.917,3.615-12.539
						c-1.031-1.631-3.199-2.352-4.332-1.991c-1.889,0.599-2.527,2.31-1.6,3.644c0.723-1.231,2.469-0.715,2.114,1.119
						c-0.517,2.667-4.091,2.417-5.88,0.924c-2.379-1.988-4.627-5.762,3.545-15.909h10.123v27.778L169.613,207.768z"/>
					<path fill="#0072BC" d="M160.746,207.768h8.867c0.754-0.993,1.598-1.981,2.535-3.027c4.877-5.425,5.269-9.917,3.615-12.539
						c-1.031-1.631-3.199-2.352-4.332-1.991c-1.889,0.599-2.527,2.31-1.6,3.644c0.723-1.231,2.469-0.715,2.114,1.119
						c-0.517,2.667-4.091,2.417-5.88,0.924c-2.379-1.988-4.627-5.762,3.545-15.909h-8.865V207.768z"/>
				</g>
				<g>
					<path fill="#996633" d="M169.429,236.76c0.734-0.865,1.576-1.842,2.544-3.085c0.629-0.807,1.203-1.697,1.722-2.635
						c0.259-0.469,0.504-0.949,0.735-1.438c0.197-0.331,0.388-0.65,0.572-0.961c0.697-1.226,1.151-2.377,1.402-3.441
						c0.5-2.129,0.186-3.908-0.642-5.219c-1.031-1.631-3.199-2.352-4.332-1.991c-1.889,0.599-2.527,2.31-1.6,3.644
						c0.723-1.231,2.469-0.715,2.114,1.119c-0.517,2.667-4.091,2.417-5.88,0.924c-2.379-1.988-4.627-5.762,3.545-15.909h10.123
						c0,0,0,6.945,0,13.89c0,1.736,0,3.473,0,5.1c0,0.814,0,1.601,0,2.347v0.278v0.137l-0.02,0.263
						c-0.025,0.351-0.051,0.695-0.075,1.035c-0.05,0.679-0.098,1.334-0.144,1.964c-0.368,5.036-0.614,8.395-0.614,8.395
						L169.429,236.76z"/>
					<path fill="#0072BC" d="M160.746,232.702l8.684,4.059c0.734-0.865,1.576-1.842,2.544-3.085
						c0.629-0.807,1.203-1.697,1.722-2.635c0.259-0.469,0.504-0.949,0.735-1.438c0.197-0.331,0.388-0.65,0.572-0.961
						c0.697-1.226,1.151-2.377,1.402-3.441c0.5-2.129,0.186-3.908-0.642-5.219c-1.031-1.631-3.199-2.352-4.332-1.991
						c-1.889,0.599-2.527,2.31-1.6,3.644c0.723-1.231,2.469-0.715,2.114,1.119c-0.517,2.667-4.091,2.417-5.88,0.924
						c-2.379-1.988-4.627-5.762,3.545-15.909h-8.865V232.702z"/>
				</g>
			</g>
		</g>
	</g>
	<g id="g7">
		<g id="g9">
		</g>
	</g>
	<g id="g15">
	</g>
	<g id="g19">
	</g>
	<g id="g23">
		<g id="g25">
		</g>
	</g>
	<g id="g31">
		<g id="g33">
		</g>
	</g>
</g>
<g enable-background="new    ">
	<path fill="#FF9933" d="M41.676,51.002c-1.055,0-1.834-0.557-2.338-1.67c-0.234-0.527-0.469-0.844-0.703-0.949
		c-0.176-0.082-0.639-0.123-1.389-0.123c-1.477,0-3.182,1.148-5.115,3.445c-2.707,3.211-4.061,6.217-4.061,9.018
		c0,1.277,0.428,2.373,1.283,3.287s1.881,1.371,3.076,1.371c1.16,0,2.338-0.305,3.533-0.914c0.422-0.223,1.313-0.797,2.672-1.723
		c0.914-0.609,1.605-0.914,2.074-0.914c0.703,0,1.301,0.258,1.793,0.773c0.457,0.48,0.686,1.031,0.686,1.652
		c0,0.691-0.305,1.295-0.914,1.811c-3.223,2.719-6.504,4.078-9.844,4.078c-2.637,0-4.863-0.961-6.68-2.883
		c-1.734-1.852-2.602-4.031-2.602-6.539c0-3.926,1.717-7.934,5.15-12.023c2.918-3.469,5.9-5.203,8.947-5.203
		c0.516,0,0.981,0.018,1.397,0.053s0.782,0.088,1.099,0.158c0.516-0.504,1.137-0.756,1.863-0.756c1.195,0,1.934,0.686,2.215,2.057
		c0.199,0.984,0.299,2.133,0.299,3.445c0,0.586-0.17,1.119-0.51,1.6C43.164,50.686,42.52,51.002,41.676,51.002z"/>
	<path fill="#FF9933" d="M51.555,53.639c0.855-0.844,1.772-1.474,2.751-1.89s2.024-0.624,3.138-0.624
		c2.004,0,3.445,0.563,4.324,1.688c0.656,0.844,1.055,2.139,1.195,3.885c0.059,1.441,0.123,2.889,0.193,4.342
		c0.188,1.887,0.305,3.035,0.352,3.445c0.164,1.301,0.363,2.438,0.598,3.41c0.059,0.246,0.088,0.463,0.088,0.65
		c0,0.656-0.249,1.198-0.747,1.626s-1.081,0.642-1.749,0.642c-1.184,0-1.951-0.586-2.303-1.758
		c-0.281-0.949-0.539-2.285-0.773-4.008c-0.211-1.652-0.316-3.012-0.316-4.078c0-0.293,0.015-0.735,0.044-1.327
		s0.044-1.034,0.044-1.327c0-0.867-0.012-1.371-0.035-1.512c-0.105-0.645-0.41-0.967-0.914-0.967c-1.301,0-2.479,0.598-3.533,1.793
		c-0.539,0.598-1.277,1.734-2.215,3.41c0,4.242-0.205,6.797-0.615,7.664c-0.457,0.961-1.184,1.441-2.18,1.441
		c-0.656,0-1.239-0.22-1.749-0.659s-0.765-0.981-0.765-1.626c0-0.223,0.064-0.533,0.193-0.932c0.082-0.258,0.152-1.84,0.211-4.746
		c-0.059-2.355-0.047-6.275,0.035-11.76l0.035-0.58c0.07-1.383,0.105-2.309,0.105-2.777c0-0.363-0.056-0.899-0.167-1.608
		s-0.167-1.245-0.167-1.608c0-0.668,0.24-1.216,0.721-1.644s1.061-0.642,1.74-0.642c1.16,0,1.939,0.621,2.338,1.863
		c0.223,0.703,0.334,1.781,0.334,3.234c0,1.172-0.035,2.361-0.105,3.568C51.59,51.377,51.555,52.514,51.555,53.639z"/>
	<path fill="#FF9933" d="M75.988,70.531c-2.801,0-5.092-0.668-6.873-2.004c-1.969-1.477-2.953-3.557-2.953-6.24
		c0-2.965,0.779-5.473,2.338-7.523c1.734-2.273,4.072-3.41,7.014-3.41c2.039,0,3.732,0.328,5.08,0.984
		c1.77,0.867,2.654,2.215,2.654,4.043c0,1.289-0.721,2.432-2.162,3.428c-0.656,0.457-1.975,1.125-3.955,2.004l-5.924,2.619
		c0.563,0.609,1.242,1.066,2.039,1.371s1.711,0.457,2.742,0.457c1.57,0,2.9-0.322,3.99-0.967c0.973-0.574,1.752-0.861,2.338-0.861
		c1.219,0,1.829,0.592,1.829,1.775c0,1.336-0.979,2.426-2.936,3.27C79.568,70.18,77.828,70.531,75.988,70.531z M75.514,55.607
		c-1.09,0-2.021,0.363-2.795,1.09s-1.395,1.816-1.863,3.27c1.324-0.574,2.643-1.143,3.955-1.705
		c1.582-0.715,2.842-1.377,3.779-1.986C77.805,55.83,76.779,55.607,75.514,55.607z"/>
	<path fill="#FF9933" d="M96.116,70.531c-2.801,0-5.092-0.668-6.873-2.004c-1.969-1.477-2.953-3.557-2.953-6.24
		c0-2.965,0.779-5.473,2.338-7.523c1.734-2.273,4.072-3.41,7.014-3.41c2.039,0,3.732,0.328,5.08,0.984
		c1.77,0.867,2.654,2.215,2.654,4.043c0,1.289-0.721,2.432-2.162,3.428c-0.656,0.457-1.975,1.125-3.955,2.004l-5.924,2.619
		c0.563,0.609,1.242,1.066,2.039,1.371s1.711,0.457,2.742,0.457c1.57,0,2.9-0.322,3.99-0.967c0.973-0.574,1.752-0.861,2.338-0.861
		c1.219,0,1.828,0.592,1.828,1.775c0,1.336-0.979,2.426-2.936,3.27C99.696,70.18,97.956,70.531,96.116,70.531z M95.641,55.607
		c-1.09,0-2.021,0.363-2.795,1.09s-1.395,1.816-1.863,3.27c1.324-0.574,2.643-1.143,3.955-1.705
		c1.582-0.715,2.842-1.377,3.779-1.986C97.932,55.83,96.907,55.607,95.641,55.607z"/>
	<path fill="#FF9933" d="M119.758,56.855c-1.16,0-1.857-0.486-2.092-1.459c-0.469-0.082-0.949-0.123-1.441-0.123
		c-2.824,0-4.236,0.387-4.236,1.16c0,0.457,0.85,1.072,2.549,1.846c2.32,1.066,3.891,1.898,4.711,2.496
		c1.699,1.23,2.549,2.619,2.549,4.166c0,2.016-0.938,3.545-2.813,4.588c-1.512,0.832-3.369,1.248-5.572,1.248
		c-1.559,0-2.982-0.24-4.271-0.721c-1.758-0.656-2.637-1.623-2.637-2.9c0-1.172,0.697-1.758,2.092-1.758
		c0.539,0,1.318,0.17,2.338,0.51s1.805,0.51,2.355,0.51c2.379,0,3.574-0.48,3.586-1.441c0-0.598-0.826-1.26-2.479-1.986
		c-2.414-1.066-3.961-1.834-4.641-2.303c-1.652-1.16-2.479-2.572-2.479-4.236c0-2.355,1.248-3.943,3.744-4.764
		c1.465-0.48,3.691-0.721,6.68-0.721c1.172,0,2.039,0.152,2.602,0.457c0.773,0.41,1.16,1.166,1.16,2.268
		C121.463,55.801,120.895,56.855,119.758,56.855z"/>
	<path fill="#FF9933" d="M142.381,54.869c-1.277,2.66-3.299,6.838-6.064,12.533c-1.5,3.059-2.643,5.596-3.428,7.611
		c-0.246,0.727-0.633,1.805-1.16,3.234c-0.422,1.102-1.172,1.652-2.25,1.652c-0.668,0-1.254-0.217-1.758-0.65
		s-0.756-0.979-0.756-1.635c0-1.09,1.242-4.318,3.727-9.686c-1.289-2.543-3.334-6.287-6.135-11.232
		c-0.281-0.445-0.568-0.896-0.861-1.354c-0.316-0.539-0.475-1.031-0.475-1.477c0-0.633,0.252-1.189,0.756-1.67
		s1.084-0.721,1.74-0.721c0.773,0,1.377,0.287,1.811,0.861c1.664,2.215,3.604,5.549,5.818,10.002
		c1.254-2.777,2.016-4.453,2.285-5.027c0.832-1.746,1.646-3.281,2.443-4.605c0.504-0.844,1.195-1.266,2.074-1.266
		c0.656,0,1.242,0.223,1.758,0.668s0.773,0.99,0.773,1.635C142.68,54.084,142.581,54.459,142.381,54.869z"/>
</g>
<g enable-background="new    ">
	<path fill="none" stroke="#000000" d="M41.676,51.002c-1.055,0-1.834-0.557-2.338-1.67c-0.234-0.527-0.469-0.844-0.703-0.949
		c-0.176-0.082-0.639-0.123-1.389-0.123c-1.477,0-3.182,1.148-5.115,3.445c-2.707,3.211-4.061,6.217-4.061,9.018
		c0,1.277,0.428,2.373,1.283,3.287s1.881,1.371,3.076,1.371c1.16,0,2.338-0.305,3.533-0.914c0.422-0.223,1.313-0.797,2.672-1.723
		c0.914-0.609,1.605-0.914,2.074-0.914c0.703,0,1.301,0.258,1.793,0.773c0.457,0.48,0.686,1.031,0.686,1.652
		c0,0.691-0.305,1.295-0.914,1.811c-3.223,2.719-6.504,4.078-9.844,4.078c-2.637,0-4.863-0.961-6.68-2.883
		c-1.734-1.852-2.602-4.031-2.602-6.539c0-3.926,1.717-7.934,5.15-12.023c2.918-3.469,5.9-5.203,8.947-5.203
		c0.516,0,0.981,0.018,1.397,0.053s0.782,0.088,1.099,0.158c0.516-0.504,1.137-0.756,1.863-0.756c1.195,0,1.934,0.686,2.215,2.057
		c0.199,0.984,0.299,2.133,0.299,3.445c0,0.586-0.17,1.119-0.51,1.6C43.164,50.686,42.52,51.002,41.676,51.002z"/>
	<path fill="none" stroke="#000000" d="M51.555,53.639c0.855-0.844,1.772-1.474,2.751-1.89s2.024-0.624,3.138-0.624
		c2.004,0,3.445,0.563,4.324,1.688c0.656,0.844,1.055,2.139,1.195,3.885c0.059,1.441,0.123,2.889,0.193,4.342
		c0.188,1.887,0.305,3.035,0.352,3.445c0.164,1.301,0.363,2.438,0.598,3.41c0.059,0.246,0.088,0.463,0.088,0.65
		c0,0.656-0.249,1.198-0.747,1.626s-1.081,0.642-1.749,0.642c-1.184,0-1.951-0.586-2.303-1.758
		c-0.281-0.949-0.539-2.285-0.773-4.008c-0.211-1.652-0.316-3.012-0.316-4.078c0-0.293,0.015-0.735,0.044-1.327
		s0.044-1.034,0.044-1.327c0-0.867-0.012-1.371-0.035-1.512c-0.105-0.645-0.41-0.967-0.914-0.967c-1.301,0-2.479,0.598-3.533,1.793
		c-0.539,0.598-1.277,1.734-2.215,3.41c0,4.242-0.205,6.797-0.615,7.664c-0.457,0.961-1.184,1.441-2.18,1.441
		c-0.656,0-1.239-0.22-1.749-0.659s-0.765-0.981-0.765-1.626c0-0.223,0.064-0.533,0.193-0.932c0.082-0.258,0.152-1.84,0.211-4.746
		c-0.059-2.355-0.047-6.275,0.035-11.76l0.035-0.58c0.07-1.383,0.105-2.309,0.105-2.777c0-0.363-0.056-0.899-0.167-1.608
		s-0.167-1.245-0.167-1.608c0-0.668,0.24-1.216,0.721-1.644s1.061-0.642,1.74-0.642c1.16,0,1.939,0.621,2.338,1.863
		c0.223,0.703,0.334,1.781,0.334,3.234c0,1.172-0.035,2.361-0.105,3.568C51.59,51.377,51.555,52.514,51.555,53.639z"/>
	<path fill="none" stroke="#000000" d="M75.988,70.531c-2.801,0-5.092-0.668-6.873-2.004c-1.969-1.477-2.953-3.557-2.953-6.24
		c0-2.965,0.779-5.473,2.338-7.523c1.734-2.273,4.072-3.41,7.014-3.41c2.039,0,3.732,0.328,5.08,0.984
		c1.77,0.867,2.654,2.215,2.654,4.043c0,1.289-0.721,2.432-2.162,3.428c-0.656,0.457-1.975,1.125-3.955,2.004l-5.924,2.619
		c0.563,0.609,1.242,1.066,2.039,1.371s1.711,0.457,2.742,0.457c1.57,0,2.9-0.322,3.99-0.967c0.973-0.574,1.752-0.861,2.338-0.861
		c1.219,0,1.829,0.592,1.829,1.775c0,1.336-0.979,2.426-2.936,3.27C79.568,70.18,77.828,70.531,75.988,70.531z M75.514,55.607
		c-1.09,0-2.021,0.363-2.795,1.09s-1.395,1.816-1.863,3.27c1.324-0.574,2.643-1.143,3.955-1.705
		c1.582-0.715,2.842-1.377,3.779-1.986C77.805,55.83,76.779,55.607,75.514,55.607z"/>
	<path fill="none" stroke="#000000" d="M96.116,70.531c-2.801,0-5.092-0.668-6.873-2.004c-1.969-1.477-2.953-3.557-2.953-6.24
		c0-2.965,0.779-5.473,2.338-7.523c1.734-2.273,4.072-3.41,7.014-3.41c2.039,0,3.732,0.328,5.08,0.984
		c1.77,0.867,2.654,2.215,2.654,4.043c0,1.289-0.721,2.432-2.162,3.428c-0.656,0.457-1.975,1.125-3.955,2.004l-5.924,2.619
		c0.563,0.609,1.242,1.066,2.039,1.371s1.711,0.457,2.742,0.457c1.57,0,2.9-0.322,3.99-0.967c0.973-0.574,1.752-0.861,2.338-0.861
		c1.219,0,1.828,0.592,1.828,1.775c0,1.336-0.979,2.426-2.936,3.27C99.696,70.18,97.956,70.531,96.116,70.531z M95.641,55.607
		c-1.09,0-2.021,0.363-2.795,1.09s-1.395,1.816-1.863,3.27c1.324-0.574,2.643-1.143,3.955-1.705
		c1.582-0.715,2.842-1.377,3.779-1.986C97.932,55.83,96.907,55.607,95.641,55.607z"/>
	<path fill="none" stroke="#000000" d="M119.758,56.855c-1.16,0-1.857-0.486-2.092-1.459c-0.469-0.082-0.949-0.123-1.441-0.123
		c-2.824,0-4.236,0.387-4.236,1.16c0,0.457,0.85,1.072,2.549,1.846c2.32,1.066,3.891,1.898,4.711,2.496
		c1.699,1.23,2.549,2.619,2.549,4.166c0,2.016-0.938,3.545-2.813,4.588c-1.512,0.832-3.369,1.248-5.572,1.248
		c-1.559,0-2.982-0.24-4.271-0.721c-1.758-0.656-2.637-1.623-2.637-2.9c0-1.172,0.697-1.758,2.092-1.758
		c0.539,0,1.318,0.17,2.338,0.51s1.805,0.51,2.355,0.51c2.379,0,3.574-0.48,3.586-1.441c0-0.598-0.826-1.26-2.479-1.986
		c-2.414-1.066-3.961-1.834-4.641-2.303c-1.652-1.16-2.479-2.572-2.479-4.236c0-2.355,1.248-3.943,3.744-4.764
		c1.465-0.48,3.691-0.721,6.68-0.721c1.172,0,2.039,0.152,2.602,0.457c0.773,0.41,1.16,1.166,1.16,2.268
		C121.463,55.801,120.895,56.855,119.758,56.855z"/>
	<path fill="none" stroke="#000000" d="M142.381,54.869c-1.277,2.66-3.299,6.838-6.064,12.533c-1.5,3.059-2.643,5.596-3.428,7.611
		c-0.246,0.727-0.633,1.805-1.16,3.234c-0.422,1.102-1.172,1.652-2.25,1.652c-0.668,0-1.254-0.217-1.758-0.65
		s-0.756-0.979-0.756-1.635c0-1.09,1.242-4.318,3.727-9.686c-1.289-2.543-3.334-6.287-6.135-11.232
		c-0.281-0.445-0.568-0.896-0.861-1.354c-0.316-0.539-0.475-1.031-0.475-1.477c0-0.633,0.252-1.189,0.756-1.67
		s1.084-0.721,1.74-0.721c0.773,0,1.377,0.287,1.811,0.861c1.664,2.215,3.604,5.549,5.818,10.002
		c1.254-2.777,2.016-4.453,2.285-5.027c0.832-1.746,1.646-3.281,2.443-4.605c0.504-0.844,1.195-1.266,2.074-1.266
		c0.656,0,1.242,0.223,1.758,0.668s0.773,0.99,0.773,1.635C142.68,54.084,142.581,54.459,142.381,54.869z"/>
</g>
<g enable-background="new    ">
	<path fill="#FF9933" d="M40.859,94.201c-1.055,0-1.834-0.557-2.338-1.67c-0.234-0.527-0.469-0.844-0.703-0.949
		c-0.176-0.082-0.639-0.123-1.389-0.123c-1.477,0-3.182,1.148-5.115,3.445c-2.707,3.211-4.061,6.217-4.061,9.018
		c0,1.277,0.428,2.373,1.283,3.287s1.881,1.371,3.076,1.371c1.16,0,2.338-0.305,3.533-0.914c0.422-0.223,1.313-0.797,2.672-1.723
		c0.914-0.609,1.605-0.914,2.074-0.914c0.703,0,1.301,0.258,1.793,0.773c0.457,0.48,0.686,1.031,0.686,1.652
		c0,0.691-0.305,1.295-0.914,1.811c-3.223,2.719-6.504,4.078-9.844,4.078c-2.637,0-4.863-0.961-6.68-2.883
		c-1.734-1.852-2.602-4.031-2.602-6.539c0-3.926,1.717-7.934,5.15-12.023c2.918-3.469,5.9-5.203,8.947-5.203
		c0.516,0,0.981,0.018,1.397,0.053s0.782,0.088,1.099,0.158c0.516-0.504,1.137-0.756,1.863-0.756c1.195,0,1.934,0.686,2.215,2.057
		c0.199,0.984,0.299,2.133,0.299,3.445c0,0.586-0.17,1.119-0.51,1.6C42.348,93.885,41.703,94.201,40.859,94.201z"/>
	<path fill="#FF9933" d="M60.916,102.762c0,0.785,0.006,1.969,0.018,3.551s0.018,2.766,0.018,3.551c0,0.246,0.021,0.612,0.062,1.099
		s0.062,0.853,0.062,1.099c0,0.656-0.237,1.198-0.712,1.626s-1.058,0.642-1.749,0.642c-0.973,0-1.682-0.439-2.127-1.318
		c-1.5,0.551-3.053,0.826-4.658,0.826c-1.664,0-3.064-0.35-4.201-1.049c-1.277-0.805-2.039-1.976-2.285-3.515
		c-0.457-2.913-0.686-5.519-0.686-7.815c0-1.515,0.176-3.245,0.527-5.192c0.234-1.317,1.025-1.976,2.373-1.976
		c0.68,0,1.26,0.213,1.74,0.637c0.48,0.425,0.721,0.964,0.721,1.615c0,0.512-0.085,1.314-0.255,2.408s-0.255,1.926-0.255,2.496
		c0,1.641,0.056,3.075,0.167,4.303s0.278,2.243,0.501,3.046c0.293,0.128,0.577,0.227,0.853,0.297c0.275,0.069,0.542,0.104,0.8,0.104
		c1.301,0,2.73-0.188,4.289-0.563c0-0.902-0.006-1.928-0.018-3.076c-0.023-1.371-0.035-2.355-0.035-2.953
		c0-2.402,0.111-4.477,0.334-6.223c0.176-1.395,0.973-2.092,2.391-2.092c0.691,0,1.283,0.217,1.775,0.65s0.721,0.979,0.686,1.635
		C61.027,101.039,60.916,103.102,60.916,102.762z"/>
	<path fill="#FF9933" d="M76.613,100.055c-1.16,0-1.857-0.486-2.092-1.459c-0.469-0.082-0.949-0.123-1.441-0.123
		c-2.824,0-4.236,0.387-4.236,1.16c0,0.457,0.85,1.072,2.549,1.846c2.32,1.066,3.891,1.898,4.711,2.496
		c1.699,1.23,2.549,2.619,2.549,4.166c0,2.016-0.938,3.545-2.813,4.588c-1.512,0.832-3.369,1.248-5.572,1.248
		c-1.559,0-2.982-0.24-4.271-0.721c-1.758-0.656-2.637-1.623-2.637-2.9c0-1.172,0.697-1.758,2.092-1.758
		c0.539,0,1.318,0.17,2.338,0.51s1.805,0.51,2.355,0.51c2.379,0,3.574-0.48,3.586-1.441c0-0.598-0.826-1.26-2.479-1.986
		c-2.414-1.066-3.961-1.834-4.641-2.303c-1.652-1.16-2.479-2.572-2.479-4.236c0-2.355,1.248-3.943,3.744-4.764
		c1.465-0.48,3.691-0.721,6.68-0.721c1.172,0,2.039,0.152,2.602,0.457c0.773,0.41,1.16,1.166,1.16,2.268
		C78.318,99,77.75,100.055,76.613,100.055z"/>
	<path fill="#FF9933" d="M94.174,98.771c-0.246,0-0.537-0.009-0.871-0.026s-0.623-0.026-0.869-0.026c-0.48,0-1.037,0.047-1.67,0.141
		c0.211,4.734,0.316,7.828,0.316,9.281c0,0.152,0.006,0.437,0.018,0.853s0.018,0.753,0.018,1.011c0,2.695-0.85,4.043-2.549,4.043
		c-0.645,0-1.201-0.199-1.67-0.598c-0.516-0.422-0.773-0.949-0.773-1.582c0-0.422,0.018-1.055,0.053-1.898s0.053-1.477,0.053-1.898
		c0-1.418-0.105-4.453-0.316-9.105c-0.727-0.035-1.826-0.132-3.296-0.29c-1.471-0.158-2.206-0.917-2.206-2.276
		c0-0.656,0.223-1.213,0.668-1.67s1.02-0.686,1.723-0.686c0.434,0,1.43,0.07,2.989,0.211c-0.012-0.375-0.041-0.996-0.088-1.863
		c-0.047-0.75-0.07-1.33-0.07-1.74c0-0.656,0.24-1.201,0.721-1.635s1.061-0.65,1.74-0.65c1.734,0,2.602,1.459,2.602,4.377
		l-0.035,1.441c0.727-0.105,1.318-0.158,1.775-0.158c1.348,0,2.268,0.088,2.76,0.264c0.938,0.328,1.406,1.043,1.406,2.145
		c0,0.668-0.229,1.225-0.686,1.67S94.877,98.771,94.174,98.771z"/>
	<path fill="#FF9933" d="M105.969,113.959c-2.168,0-4.031-0.744-5.59-2.232c-1.711-1.629-2.607-3.803-2.689-6.521
		c-0.082-2.59,0.627-4.898,2.127-6.926c1.781-2.391,4.26-3.586,7.436-3.586c2.344,0,4.207,0.938,5.59,2.813
		c1.242,1.688,1.863,3.779,1.863,6.275c0,2.719-0.727,5.039-2.18,6.961C110.897,112.887,108.711,113.959,105.969,113.959z
		 M107.024,99.334c-1.441-0.012-2.578,0.645-3.41,1.969c-0.703,1.113-1.055,2.414-1.055,3.902c0,1.406,0.398,2.484,1.195,3.234
		c0.633,0.598,1.371,0.896,2.215,0.896c1.02,0,1.904-0.346,2.654-1.037c0.855-0.809,1.313-1.904,1.371-3.287
		C110.147,101.238,109.157,99.346,107.024,99.334z"/>
	<path fill="#FF9933" d="M122.211,97.365c1.77-2.051,3.445-3.076,5.027-3.076c1.805,0,3.129,0.686,3.973,2.057
		c0.715-0.633,1.506-1.107,2.373-1.424s1.805-0.475,2.813-0.475c2.297,0,3.855,1.143,4.676,3.428
		c0.164,0.469,0.416,2.057,0.756,4.764c0.328,1.898,0.75,5.063,1.266,9.492c0.047,0.668-0.182,1.219-0.686,1.652
		s-1.096,0.65-1.775,0.65c-1.348,0-2.139-0.668-2.373-2.004c-0.211-1.207-0.428-2.912-0.65-5.115
		c-0.234-2.414-0.428-4.125-0.58-5.133c-0.316-2.098-0.721-3.146-1.213-3.146c-0.27,0-0.885,0.27-1.846,0.809
		s-1.664,1.002-2.109,1.389c0,1.336,0.158,3.258,0.475,5.766c0.328,2.566,0.492,4.488,0.492,5.766c0,0.668-0.229,1.225-0.686,1.67
		s-1.037,0.668-1.74,0.668s-1.283-0.223-1.74-0.668s-0.686-1.002-0.686-1.67c0-1.336-0.145-3.302-0.432-5.897
		s-0.43-4.562-0.43-5.897c0-0.75-0.064-1.348-0.193-1.793c-1.359,0.785-2.725,2.092-4.096,3.92
		c-0.059,0.082-0.158,0.205-0.299,0.369c-0.047,2.367-0.07,4.225-0.07,5.572c0,0.328-0.012,0.771-0.035,1.327
		s-0.035,0.97-0.035,1.239c0,0.633-0.258,1.131-0.773,1.494c-0.469,0.34-1.049,0.51-1.74,0.51c-0.996,0-1.67-0.434-2.021-1.301
		c-0.246-0.586-0.369-1.518-0.369-2.795v-6.539c0-0.586-0.023-1.444-0.07-2.575s-0.07-1.989-0.07-2.575
		c0-1.043,0.188-1.986,0.563-2.83c0.457-1.055,1.102-1.582,1.934-1.582c0.656,0,1.242,0.255,1.758,0.765s0.773,1.069,0.773,1.679
		C122.37,95.607,122.317,96.111,122.211,97.365z"/>
</g>
<g enable-background="new    ">
	<path fill="none" stroke="#000000" d="M40.859,94.201c-1.055,0-1.834-0.557-2.338-1.67c-0.234-0.527-0.469-0.844-0.703-0.949
		c-0.176-0.082-0.639-0.123-1.389-0.123c-1.477,0-3.182,1.148-5.115,3.445c-2.707,3.211-4.061,6.217-4.061,9.018
		c0,1.277,0.428,2.373,1.283,3.287s1.881,1.371,3.076,1.371c1.16,0,2.338-0.305,3.533-0.914c0.422-0.223,1.313-0.797,2.672-1.723
		c0.914-0.609,1.605-0.914,2.074-0.914c0.703,0,1.301,0.258,1.793,0.773c0.457,0.48,0.686,1.031,0.686,1.652
		c0,0.691-0.305,1.295-0.914,1.811c-3.223,2.719-6.504,4.078-9.844,4.078c-2.637,0-4.863-0.961-6.68-2.883
		c-1.734-1.852-2.602-4.031-2.602-6.539c0-3.926,1.717-7.934,5.15-12.023c2.918-3.469,5.9-5.203,8.947-5.203
		c0.516,0,0.981,0.018,1.397,0.053s0.782,0.088,1.099,0.158c0.516-0.504,1.137-0.756,1.863-0.756c1.195,0,1.934,0.686,2.215,2.057
		c0.199,0.984,0.299,2.133,0.299,3.445c0,0.586-0.17,1.119-0.51,1.6C42.348,93.885,41.703,94.201,40.859,94.201z"/>
	<path fill="none" stroke="#000000" d="M60.916,102.762c0,0.785,0.006,1.969,0.018,3.551s0.018,2.766,0.018,3.551
		c0,0.246,0.021,0.612,0.062,1.099s0.062,0.853,0.062,1.099c0,0.656-0.237,1.198-0.712,1.626s-1.058,0.642-1.749,0.642
		c-0.973,0-1.682-0.439-2.127-1.318c-1.5,0.551-3.053,0.826-4.658,0.826c-1.664,0-3.064-0.35-4.201-1.049
		c-1.277-0.805-2.039-1.976-2.285-3.515c-0.457-2.913-0.686-5.519-0.686-7.815c0-1.515,0.176-3.245,0.527-5.192
		c0.234-1.317,1.025-1.976,2.373-1.976c0.68,0,1.26,0.213,1.74,0.637c0.48,0.425,0.721,0.964,0.721,1.615
		c0,0.512-0.085,1.314-0.255,2.408s-0.255,1.926-0.255,2.496c0,1.641,0.056,3.075,0.167,4.303s0.278,2.243,0.501,3.046
		c0.293,0.128,0.577,0.227,0.853,0.297c0.275,0.069,0.542,0.104,0.8,0.104c1.301,0,2.73-0.188,4.289-0.563
		c0-0.902-0.006-1.928-0.018-3.076c-0.023-1.371-0.035-2.355-0.035-2.953c0-2.402,0.111-4.477,0.334-6.223
		c0.176-1.395,0.973-2.092,2.391-2.092c0.691,0,1.283,0.217,1.775,0.65s0.721,0.979,0.686,1.635
		C61.027,101.039,60.916,103.102,60.916,102.762z"/>
	<path fill="none" stroke="#000000" d="M76.613,100.055c-1.16,0-1.857-0.486-2.092-1.459c-0.469-0.082-0.949-0.123-1.441-0.123
		c-2.824,0-4.236,0.387-4.236,1.16c0,0.457,0.85,1.072,2.549,1.846c2.32,1.066,3.891,1.898,4.711,2.496
		c1.699,1.23,2.549,2.619,2.549,4.166c0,2.016-0.938,3.545-2.813,4.588c-1.512,0.832-3.369,1.248-5.572,1.248
		c-1.559,0-2.982-0.24-4.271-0.721c-1.758-0.656-2.637-1.623-2.637-2.9c0-1.172,0.697-1.758,2.092-1.758
		c0.539,0,1.318,0.17,2.338,0.51s1.805,0.51,2.355,0.51c2.379,0,3.574-0.48,3.586-1.441c0-0.598-0.826-1.26-2.479-1.986
		c-2.414-1.066-3.961-1.834-4.641-2.303c-1.652-1.16-2.479-2.572-2.479-4.236c0-2.355,1.248-3.943,3.744-4.764
		c1.465-0.48,3.691-0.721,6.68-0.721c1.172,0,2.039,0.152,2.602,0.457c0.773,0.41,1.16,1.166,1.16,2.268
		C78.318,99,77.75,100.055,76.613,100.055z"/>
	<path fill="none" stroke="#000000" d="M94.174,98.771c-0.246,0-0.537-0.009-0.871-0.026s-0.623-0.026-0.869-0.026
		c-0.48,0-1.037,0.047-1.67,0.141c0.211,4.734,0.316,7.828,0.316,9.281c0,0.152,0.006,0.437,0.018,0.853s0.018,0.753,0.018,1.011
		c0,2.695-0.85,4.043-2.549,4.043c-0.645,0-1.201-0.199-1.67-0.598c-0.516-0.422-0.773-0.949-0.773-1.582
		c0-0.422,0.018-1.055,0.053-1.898s0.053-1.477,0.053-1.898c0-1.418-0.105-4.453-0.316-9.105c-0.727-0.035-1.826-0.132-3.296-0.29
		c-1.471-0.158-2.206-0.917-2.206-2.276c0-0.656,0.223-1.213,0.668-1.67s1.02-0.686,1.723-0.686c0.434,0,1.43,0.07,2.989,0.211
		c-0.012-0.375-0.041-0.996-0.088-1.863c-0.047-0.75-0.07-1.33-0.07-1.74c0-0.656,0.24-1.201,0.721-1.635s1.061-0.65,1.74-0.65
		c1.734,0,2.602,1.459,2.602,4.377l-0.035,1.441c0.727-0.105,1.318-0.158,1.775-0.158c1.348,0,2.268,0.088,2.76,0.264
		c0.938,0.328,1.406,1.043,1.406,2.145c0,0.668-0.229,1.225-0.686,1.67S94.877,98.771,94.174,98.771z"/>
	<path fill="none" stroke="#000000" d="M105.969,113.959c-2.168,0-4.031-0.744-5.59-2.232c-1.711-1.629-2.607-3.803-2.689-6.521
		c-0.082-2.59,0.627-4.898,2.127-6.926c1.781-2.391,4.26-3.586,7.436-3.586c2.344,0,4.207,0.938,5.59,2.813
		c1.242,1.688,1.863,3.779,1.863,6.275c0,2.719-0.727,5.039-2.18,6.961C110.897,112.887,108.711,113.959,105.969,113.959z
		 M107.024,99.334c-1.441-0.012-2.578,0.645-3.41,1.969c-0.703,1.113-1.055,2.414-1.055,3.902c0,1.406,0.398,2.484,1.195,3.234
		c0.633,0.598,1.371,0.896,2.215,0.896c1.02,0,1.904-0.346,2.654-1.037c0.855-0.809,1.313-1.904,1.371-3.287
		C110.147,101.238,109.157,99.346,107.024,99.334z"/>
	<path fill="none" stroke="#000000" d="M122.211,97.365c1.77-2.051,3.445-3.076,5.027-3.076c1.805,0,3.129,0.686,3.973,2.057
		c0.715-0.633,1.506-1.107,2.373-1.424s1.805-0.475,2.813-0.475c2.297,0,3.855,1.143,4.676,3.428
		c0.164,0.469,0.416,2.057,0.756,4.764c0.328,1.898,0.75,5.063,1.266,9.492c0.047,0.668-0.182,1.219-0.686,1.652
		s-1.096,0.65-1.775,0.65c-1.348,0-2.139-0.668-2.373-2.004c-0.211-1.207-0.428-2.912-0.65-5.115
		c-0.234-2.414-0.428-4.125-0.58-5.133c-0.316-2.098-0.721-3.146-1.213-3.146c-0.27,0-0.885,0.27-1.846,0.809
		s-1.664,1.002-2.109,1.389c0,1.336,0.158,3.258,0.475,5.766c0.328,2.566,0.492,4.488,0.492,5.766c0,0.668-0.229,1.225-0.686,1.67
		s-1.037,0.668-1.74,0.668s-1.283-0.223-1.74-0.668s-0.686-1.002-0.686-1.67c0-1.336-0.145-3.302-0.432-5.897
		s-0.43-4.562-0.43-5.897c0-0.75-0.064-1.348-0.193-1.793c-1.359,0.785-2.725,2.092-4.096,3.92
		c-0.059,0.082-0.158,0.205-0.299,0.369c-0.047,2.367-0.07,4.225-0.07,5.572c0,0.328-0.012,0.771-0.035,1.327
		s-0.035,0.97-0.035,1.239c0,0.633-0.258,1.131-0.773,1.494c-0.469,0.34-1.049,0.51-1.74,0.51c-0.996,0-1.67-0.434-2.021-1.301
		c-0.246-0.586-0.369-1.518-0.369-2.795v-6.539c0-0.586-0.023-1.444-0.07-2.575s-0.07-1.989-0.07-2.575
		c0-1.043,0.188-1.986,0.563-2.83c0.457-1.055,1.102-1.582,1.934-1.582c0.656,0,1.242,0.255,1.758,0.765s0.773,1.069,0.773,1.679
		C122.37,95.607,122.317,96.111,122.211,97.365z"/>
</g>
<g enable-background="new    ">
	<path fill="#FF9933" d="M61.689,137.402c-1.055,0-1.834-0.557-2.338-1.67c-0.234-0.527-0.469-0.844-0.703-0.949
		c-0.176-0.082-0.639-0.123-1.389-0.123c-1.477,0-3.182,1.148-5.115,3.445c-2.707,3.211-4.061,6.217-4.061,9.018
		c0,1.277,0.428,2.373,1.283,3.287s1.881,1.371,3.076,1.371c1.16,0,2.338-0.305,3.533-0.914c0.422-0.223,1.313-0.797,2.672-1.723
		c0.914-0.609,1.605-0.914,2.074-0.914c0.703,0,1.301,0.258,1.793,0.773c0.457,0.48,0.686,1.031,0.686,1.652
		c0,0.691-0.305,1.295-0.914,1.811c-3.223,2.719-6.504,4.078-9.844,4.078c-2.637,0-4.863-0.961-6.68-2.883
		c-1.734-1.852-2.602-4.031-2.602-6.539c0-3.926,1.717-7.934,5.15-12.023c2.918-3.469,5.9-5.203,8.947-5.203
		c0.516,0,0.981,0.018,1.397,0.053s0.782,0.088,1.099,0.158c0.516-0.504,1.137-0.756,1.863-0.756c1.195,0,1.934,0.686,2.215,2.057
		c0.199,0.984,0.299,2.133,0.299,3.445c0,0.586-0.17,1.119-0.51,1.6C63.178,137.085,62.533,137.402,61.689,137.402z"/>
	<path fill="#FF9933" d="M81.518,157.089c-0.539,0-1.395-0.521-2.566-1.564c-1.078,0.516-2.027,0.904-2.848,1.168
		s-1.518,0.396-2.092,0.396c-2.824,0-4.942-0.756-6.354-2.268s-2.118-3.773-2.118-6.785c0-2.824,1.043-5.242,3.129-7.252
		s4.582-3.014,7.488-3.014c1.113,0,2.402,0.313,3.867,0.939c1.77,0.754,2.654,1.631,2.654,2.627c0,0.418-0.135,0.785-0.404,1.098
		c-0.117,0.465-0.208,1.047-0.272,1.748c-0.064,0.703-0.097,1.523-0.097,2.463c0,2.217,0.158,3.813,0.475,4.787
		c0.035,0.104,0.305,0.707,0.809,1.809c0.457,0.998,0.686,1.568,0.686,1.707c0,0.615-0.237,1.125-0.712,1.531
		S82.139,157.089,81.518,157.089z M77.158,145.224c0-0.375,0.026-0.807,0.079-1.293s0.132-1.027,0.237-1.625
		c-0.234-0.117-0.442-0.203-0.624-0.256s-0.337-0.078-0.466-0.078c-1.594,0-2.988,0.623-4.184,1.871s-1.793,2.693-1.793,4.334
		c0,1.57,0.281,2.75,0.844,3.541s1.406,1.188,2.531,1.188c0.727,0,1.415-0.121,2.065-0.361s1.263-0.594,1.837-1.063
		C77.334,148.693,77.158,146.607,77.158,145.224z"/>
	<path fill="#FF9933" d="M101.083,143.449c-0.105,1.793-0.92,2.689-2.443,2.689c-1.477,0-2.215-0.762-2.215-2.285l-0.088-1.775
		c-2.637,0.422-4.523,1.775-5.66,4.061l0.018,8.842c0,0.668-0.229,1.221-0.686,1.66s-1.037,0.66-1.74,0.66
		c-0.727,0-1.289-0.234-1.688-0.703c-0.375-0.422-0.563-0.961-0.563-1.617v-11.514c0-0.363,0.012-0.906,0.035-1.627
		s0.035-1.262,0.035-1.625c0-0.656,0.195-1.205,0.588-1.645s0.953-0.658,1.68-0.658c1.301,0,2.074,0.668,2.32,2.004
		c2.074-1.547,4.377-2.32,6.908-2.32c2.344,0,3.516,1.559,3.516,4.676C101.1,142.869,101.094,143.261,101.083,143.449z"/>
	<path fill="#FF9933" d="M116.516,138.457c0.152-3.996,0.334-6.756,0.545-8.279c0.199-1.383,0.961-2.074,2.285-2.074
		c0.691,0,1.248,0.225,1.67,0.674s0.633,1,0.633,1.65c0,1.717-0.133,4.273-0.396,7.67s-0.395,5.951-0.395,7.668
		c0,4.189,0.135,6.994,0.404,8.414c0.035,0.189,0.053,0.361,0.053,0.516c0,0.65-0.234,1.186-0.703,1.605s-1.014,0.631-1.635,0.631
		c-0.867,0-1.512-0.387-1.934-1.16c-0.797,0.48-1.623,0.793-2.479,0.939s-1.74,0.221-2.654,0.221c-2.625,0-4.805-0.838-6.539-2.514
		c-1.77-1.711-2.654-3.891-2.654-6.539c0-3.152,0.891-5.699,2.672-7.639s4.107-2.908,6.979-2.908c0.879,0,1.664,0.094,2.355,0.281
		S116.012,138.082,116.516,138.457z M116.165,143.994c-0.387-0.738-0.891-1.289-1.512-1.652s-1.359-0.545-2.215-0.545
		c-1.734,0-3.035,0.5-3.902,1.502s-1.301,2.506-1.301,4.51c0,1.266,0.469,2.35,1.406,3.252s2.027,1.354,3.27,1.354
		c0.902,0,1.588-0.105,2.057-0.316c0.316-0.141,0.855-0.516,1.617-1.125c0.199-0.164,0.393-0.346,0.58-0.545
		C116.141,149.865,116.141,147.72,116.165,143.994z"/>
</g>
<g enable-background="new    ">
	<path fill="none" stroke="#000000" d="M61.689,137.402c-1.055,0-1.834-0.557-2.338-1.67c-0.234-0.527-0.469-0.844-0.703-0.949
		c-0.176-0.082-0.639-0.123-1.389-0.123c-1.477,0-3.182,1.148-5.115,3.445c-2.707,3.211-4.061,6.217-4.061,9.018
		c0,1.277,0.428,2.373,1.283,3.287s1.881,1.371,3.076,1.371c1.16,0,2.338-0.305,3.533-0.914c0.422-0.223,1.313-0.797,2.672-1.723
		c0.914-0.609,1.605-0.914,2.074-0.914c0.703,0,1.301,0.258,1.793,0.773c0.457,0.48,0.686,1.031,0.686,1.652
		c0,0.691-0.305,1.295-0.914,1.811c-3.223,2.719-6.504,4.078-9.844,4.078c-2.637,0-4.863-0.961-6.68-2.883
		c-1.734-1.852-2.602-4.031-2.602-6.539c0-3.926,1.717-7.934,5.15-12.023c2.918-3.469,5.9-5.203,8.947-5.203
		c0.516,0,0.981,0.018,1.397,0.053s0.782,0.088,1.099,0.158c0.516-0.504,1.137-0.756,1.863-0.756c1.195,0,1.934,0.686,2.215,2.057
		c0.199,0.984,0.299,2.133,0.299,3.445c0,0.586-0.17,1.119-0.51,1.6C63.178,137.085,62.533,137.402,61.689,137.402z"/>
	<path fill="none" stroke="#000000" d="M81.518,157.089c-0.539,0-1.395-0.521-2.566-1.564c-1.078,0.516-2.027,0.904-2.848,1.168
		s-1.518,0.396-2.092,0.396c-2.824,0-4.942-0.756-6.354-2.268s-2.118-3.773-2.118-6.785c0-2.824,1.043-5.242,3.129-7.252
		s4.582-3.014,7.488-3.014c1.113,0,2.402,0.313,3.867,0.939c1.77,0.754,2.654,1.631,2.654,2.627c0,0.418-0.135,0.785-0.404,1.098
		c-0.117,0.465-0.208,1.047-0.272,1.748c-0.064,0.703-0.097,1.523-0.097,2.463c0,2.217,0.158,3.813,0.475,4.787
		c0.035,0.104,0.305,0.707,0.809,1.809c0.457,0.998,0.686,1.568,0.686,1.707c0,0.615-0.237,1.125-0.712,1.531
		S82.139,157.089,81.518,157.089z M77.158,145.224c0-0.375,0.026-0.807,0.079-1.293s0.132-1.027,0.237-1.625
		c-0.234-0.117-0.442-0.203-0.624-0.256s-0.337-0.078-0.466-0.078c-1.594,0-2.988,0.623-4.184,1.871s-1.793,2.693-1.793,4.334
		c0,1.57,0.281,2.75,0.844,3.541s1.406,1.188,2.531,1.188c0.727,0,1.415-0.121,2.065-0.361s1.263-0.594,1.837-1.063
		C77.334,148.693,77.158,146.607,77.158,145.224z"/>
	<path fill="none" stroke="#000000" d="M101.083,143.449c-0.105,1.793-0.92,2.689-2.443,2.689c-1.477,0-2.215-0.762-2.215-2.285
		l-0.088-1.775c-2.637,0.422-4.523,1.775-5.66,4.061l0.018,8.842c0,0.668-0.229,1.221-0.686,1.66s-1.037,0.66-1.74,0.66
		c-0.727,0-1.289-0.234-1.688-0.703c-0.375-0.422-0.563-0.961-0.563-1.617v-11.514c0-0.363,0.012-0.906,0.035-1.627
		s0.035-1.262,0.035-1.625c0-0.656,0.195-1.205,0.588-1.645s0.953-0.658,1.68-0.658c1.301,0,2.074,0.668,2.32,2.004
		c2.074-1.547,4.377-2.32,6.908-2.32c2.344,0,3.516,1.559,3.516,4.676C101.1,142.869,101.094,143.261,101.083,143.449z"/>
	<path fill="none" stroke="#000000" d="M116.516,138.457c0.152-3.996,0.334-6.756,0.545-8.279c0.199-1.383,0.961-2.074,2.285-2.074
		c0.691,0,1.248,0.225,1.67,0.674s0.633,1,0.633,1.65c0,1.717-0.133,4.273-0.396,7.67s-0.395,5.951-0.395,7.668
		c0,4.189,0.135,6.994,0.404,8.414c0.035,0.189,0.053,0.361,0.053,0.516c0,0.65-0.234,1.186-0.703,1.605s-1.014,0.631-1.635,0.631
		c-0.867,0-1.512-0.387-1.934-1.16c-0.797,0.48-1.623,0.793-2.479,0.939s-1.74,0.221-2.654,0.221c-2.625,0-4.805-0.838-6.539-2.514
		c-1.77-1.711-2.654-3.891-2.654-6.539c0-3.152,0.891-5.699,2.672-7.639s4.107-2.908,6.979-2.908c0.879,0,1.664,0.094,2.355,0.281
		S116.012,138.082,116.516,138.457z M116.165,143.994c-0.387-0.738-0.891-1.289-1.512-1.652s-1.359-0.545-2.215-0.545
		c-1.734,0-3.035,0.5-3.902,1.502s-1.301,2.506-1.301,4.51c0,1.266,0.469,2.35,1.406,3.252s2.027,1.354,3.27,1.354
		c0.902,0,1.588-0.105,2.057-0.316c0.316-0.141,0.855-0.516,1.617-1.125c0.199-0.164,0.393-0.346,0.58-0.545
		C116.141,149.865,116.141,147.72,116.165,143.994z"/>
</g>
<g enable-background="new    ">
	<path fill="#FF9933" d="M57.866,198.636c-2.73,1.02-6.182,1.529-10.354,1.529c-0.703,0-1.333-0.293-1.89-0.879
		s-0.835-1.213-0.835-1.881v-18.633c-0.035-0.797-0.064-1.594-0.088-2.391c-0.035-0.902-0.006-1.664,0.088-2.285
		c0.164-1.102,1.189-1.77,3.076-2.004c0.891-0.258,2.367-0.387,4.43-0.387c2.215,0,4.336,0.715,6.363,2.145
		c2.379,1.664,3.568,3.744,3.568,6.24c0,1.348-0.246,2.484-0.738,3.41c-0.387,0.75-1.061,1.553-2.021,2.408
		c1.137,0.551,2.145,1.383,3.023,2.496c0.996,1.242,1.494,2.479,1.494,3.709c0,1.559-0.85,3.035-2.549,4.43
		C60.298,197.47,59.108,198.167,57.866,198.636z M52.294,176.47c-1.512,0-2.42,0.012-2.725,0.035l0.018,3.727l-0.018,3.691
		c1.066,0.129,1.869,0.17,2.408,0.123c3.586-0.281,5.379-1.6,5.379-3.955c0-0.832-0.527-1.635-1.582-2.408
		C54.685,176.875,53.524,176.47,52.294,176.47z M54.351,188.898c-1.066,0-2.66-0.041-4.781-0.123v6.574
		c2.016-0.105,4.201-0.492,6.557-1.16c2.063-0.586,3.082-1.219,3.059-1.898c-0.035-0.902-0.697-1.705-1.986-2.408
		C56.19,189.32,55.241,188.992,54.351,188.898z"/>
	<path fill="#FF9933" d="M81.983,200.289c-0.539,0-1.395-0.521-2.566-1.564c-1.078,0.516-2.027,0.906-2.848,1.17
		s-1.518,0.395-2.092,0.395c-2.824,0-4.942-0.756-6.354-2.268s-2.118-3.773-2.118-6.785c0-2.824,1.043-5.24,3.129-7.25
		s4.582-3.016,7.488-3.016c1.113,0,2.402,0.314,3.867,0.939c1.77,0.756,2.654,1.631,2.654,2.629c0,0.418-0.135,0.783-0.404,1.096
		c-0.117,0.465-0.208,1.049-0.272,1.75s-0.097,1.523-0.097,2.463c0,2.215,0.158,3.811,0.475,4.785
		c0.035,0.105,0.305,0.709,0.809,1.811c0.457,0.998,0.685,1.566,0.685,1.705c0,0.615-0.236,1.125-0.711,1.531
		C83.152,200.085,82.604,200.289,81.983,200.289z M77.624,188.423c0-0.375,0.026-0.805,0.079-1.291s0.132-1.029,0.237-1.627
		c-0.234-0.117-0.442-0.201-0.624-0.254s-0.337-0.08-0.466-0.08c-1.594,0-2.988,0.625-4.184,1.873s-1.793,2.691-1.793,4.332
		c0,1.57,0.281,2.752,0.844,3.543s1.406,1.186,2.531,1.186c0.727,0,1.415-0.119,2.065-0.359s1.263-0.596,1.837-1.064
		C77.8,191.892,77.624,189.806,77.624,188.423z"/>
	<path fill="#FF9933" d="M94.903,200.429c-2.578,0-4.74-0.732-6.486-2.197c-1.84-1.547-2.76-3.586-2.76-6.117
		c0-2.332,0.826-4.74,2.479-7.225c1.875-2.836,4.055-4.254,6.539-4.254c1.219,0,2.643,0.328,4.271,0.984
		c1.98,0.809,2.971,1.74,2.971,2.795c0,0.574-0.199,1.084-0.598,1.529c-0.422,0.48-0.967,0.721-1.635,0.721
		c-0.504,0-1.109-0.271-1.818-0.816s-1.773-0.818-3.191-0.818c-0.902,0-1.881,0.885-2.936,2.654
		c-1.008,1.711-1.512,3.188-1.512,4.43c0,1.23,0.445,2.197,1.336,2.9c0.844,0.668,1.957,1.002,3.34,1.002
		c0.785,0,1.746-0.299,2.883-0.896s1.857-0.896,2.162-0.896c0.633,0,1.176,0.229,1.627,0.686s0.676,0.979,0.676,1.564
		c0,0.914-0.996,1.828-2.988,2.742C97.481,200.025,96.028,200.429,94.903,200.429z"/>
	<path fill="#FF9933" d="M120.092,200.042c-0.926,0-1.629-0.445-2.109-1.336c-0.574-1.066-1.436-2.326-2.584-3.779
		c-1.781-2.262-2.725-3.463-2.83-3.604c-0.938,0.691-1.711,1.219-2.32,1.582c-0.117,1.629-0.176,3.188-0.176,4.676
		c0,0.68-0.229,1.242-0.686,1.688s-1.037,0.668-1.74,0.668c-1.652,0-2.479-0.984-2.479-2.953c0-0.926,0.068-2.311,0.203-4.156
		s0.201-3.232,0.201-4.158c0-1.699,0.027-3.641,0.08-5.826s0.078-4.117,0.078-5.793c0-0.504-0.025-1.098-0.078-1.783
		s-0.08-1.281-0.08-1.785c0-0.68,0.229-1.238,0.686-1.678s1.037-0.66,1.74-0.66s1.283,0.221,1.74,0.66s0.686,0.998,0.686,1.678
		c0,0.516,0.029,1.125,0.088,1.828s0.088,1.313,0.088,1.828c0,1.395-0.035,3.047-0.105,4.957c-0.07,1.828-0.1,3.457-0.088,4.887
		c1.594-1.23,4.02-3.469,7.277-6.715c0.516-0.516,1.102-0.773,1.758-0.773s1.236,0.24,1.74,0.721s0.756,1.037,0.756,1.67
		c0,0.539-0.229,1.061-0.686,1.564c-1.383,1.547-3.029,3.164-4.939,4.852l3.656,4.711c1.77,2.355,2.654,3.926,2.654,4.711
		c0,0.645-0.258,1.193-0.773,1.645S120.749,200.042,120.092,200.042z"/>
</g>
<g enable-background="new    ">
	<path fill="none" stroke="#000000" d="M57.866,198.636c-2.73,1.02-6.182,1.529-10.354,1.529c-0.703,0-1.333-0.293-1.89-0.879
		s-0.835-1.213-0.835-1.881v-18.633c-0.035-0.797-0.064-1.594-0.088-2.391c-0.035-0.902-0.006-1.664,0.088-2.285
		c0.164-1.102,1.189-1.77,3.076-2.004c0.891-0.258,2.367-0.387,4.43-0.387c2.215,0,4.336,0.715,6.363,2.145
		c2.379,1.664,3.568,3.744,3.568,6.24c0,1.348-0.246,2.484-0.738,3.41c-0.387,0.75-1.061,1.553-2.021,2.408
		c1.137,0.551,2.145,1.383,3.023,2.496c0.996,1.242,1.494,2.479,1.494,3.709c0,1.559-0.85,3.035-2.549,4.43
		C60.298,197.47,59.108,198.167,57.866,198.636z M52.294,176.47c-1.512,0-2.42,0.012-2.725,0.035l0.018,3.727l-0.018,3.691
		c1.066,0.129,1.869,0.17,2.408,0.123c3.586-0.281,5.379-1.6,5.379-3.955c0-0.832-0.527-1.635-1.582-2.408
		C54.685,176.875,53.524,176.47,52.294,176.47z M54.351,188.898c-1.066,0-2.66-0.041-4.781-0.123v6.574
		c2.016-0.105,4.201-0.492,6.557-1.16c2.063-0.586,3.082-1.219,3.059-1.898c-0.035-0.902-0.697-1.705-1.986-2.408
		C56.19,189.32,55.241,188.992,54.351,188.898z"/>
	<path fill="none" stroke="#000000" d="M81.983,200.289c-0.539,0-1.395-0.521-2.566-1.564c-1.078,0.516-2.027,0.906-2.848,1.17
		s-1.518,0.395-2.092,0.395c-2.824,0-4.942-0.756-6.354-2.268s-2.118-3.773-2.118-6.785c0-2.824,1.043-5.24,3.129-7.25
		s4.582-3.016,7.488-3.016c1.113,0,2.402,0.314,3.867,0.939c1.77,0.756,2.654,1.631,2.654,2.629c0,0.418-0.135,0.783-0.404,1.096
		c-0.117,0.465-0.208,1.049-0.272,1.75s-0.097,1.523-0.097,2.463c0,2.215,0.158,3.811,0.475,4.785
		c0.035,0.105,0.305,0.709,0.809,1.811c0.457,0.998,0.685,1.566,0.685,1.705c0,0.615-0.236,1.125-0.711,1.531
		C83.152,200.085,82.604,200.289,81.983,200.289z M77.624,188.423c0-0.375,0.026-0.805,0.079-1.291s0.132-1.029,0.237-1.627
		c-0.234-0.117-0.442-0.201-0.624-0.254s-0.337-0.08-0.466-0.08c-1.594,0-2.988,0.625-4.184,1.873s-1.793,2.691-1.793,4.332
		c0,1.57,0.281,2.752,0.844,3.543s1.406,1.186,2.531,1.186c0.727,0,1.415-0.119,2.065-0.359s1.263-0.596,1.837-1.064
		C77.8,191.892,77.624,189.806,77.624,188.423z"/>
	<path fill="none" stroke="#000000" d="M94.903,200.429c-2.578,0-4.74-0.732-6.486-2.197c-1.84-1.547-2.76-3.586-2.76-6.117
		c0-2.332,0.826-4.74,2.479-7.225c1.875-2.836,4.055-4.254,6.539-4.254c1.219,0,2.643,0.328,4.271,0.984
		c1.98,0.809,2.971,1.74,2.971,2.795c0,0.574-0.199,1.084-0.598,1.529c-0.422,0.48-0.967,0.721-1.635,0.721
		c-0.504,0-1.109-0.271-1.818-0.816s-1.773-0.818-3.191-0.818c-0.902,0-1.881,0.885-2.936,2.654
		c-1.008,1.711-1.512,3.188-1.512,4.43c0,1.23,0.445,2.197,1.336,2.9c0.844,0.668,1.957,1.002,3.34,1.002
		c0.785,0,1.746-0.299,2.883-0.896s1.857-0.896,2.162-0.896c0.633,0,1.176,0.229,1.627,0.686s0.676,0.979,0.676,1.564
		c0,0.914-0.996,1.828-2.988,2.742C97.481,200.025,96.028,200.429,94.903,200.429z"/>
	<path fill="none" stroke="#000000" d="M120.092,200.042c-0.926,0-1.629-0.445-2.109-1.336c-0.574-1.066-1.436-2.326-2.584-3.779
		c-1.781-2.262-2.725-3.463-2.83-3.604c-0.938,0.691-1.711,1.219-2.32,1.582c-0.117,1.629-0.176,3.188-0.176,4.676
		c0,0.68-0.229,1.242-0.686,1.688s-1.037,0.668-1.74,0.668c-1.652,0-2.479-0.984-2.479-2.953c0-0.926,0.068-2.311,0.203-4.156
		s0.201-3.232,0.201-4.158c0-1.699,0.027-3.641,0.08-5.826s0.078-4.117,0.078-5.793c0-0.504-0.025-1.098-0.078-1.783
		s-0.08-1.281-0.08-1.785c0-0.68,0.229-1.238,0.686-1.678s1.037-0.66,1.74-0.66s1.283,0.221,1.74,0.66s0.686,0.998,0.686,1.678
		c0,0.516,0.029,1.125,0.088,1.828s0.088,1.313,0.088,1.828c0,1.395-0.035,3.047-0.105,4.957c-0.07,1.828-0.1,3.457-0.088,4.887
		c1.594-1.23,4.02-3.469,7.277-6.715c0.516-0.516,1.102-0.773,1.758-0.773s1.236,0.24,1.74,0.721s0.756,1.037,0.756,1.67
		c0,0.539-0.229,1.061-0.686,1.564c-1.383,1.547-3.029,3.164-4.939,4.852l3.656,4.711c1.77,2.355,2.654,3.926,2.654,4.711
		c0,0.645-0.258,1.193-0.773,1.645S120.749,200.042,120.092,200.042z"/>
</g>
</svg>
